<?xml version="1.0" encoding="utf-8"?>
<!-- Generator: Adobe Illustrator 16.0.0, SVG Export Plug-In . SVG Version: 6.00 Build 0)  -->
<!DOCTYPE svg PUBLIC "-//W3C//DTD SVG 1.1//EN" "http://www.w3.org/Graphics/SVG/1.1/DTD/svg11.dtd">
<svg version="1.1" id="Layer_1" xmlns="http://www.w3.org/2000/svg" xmlns:xlink="http://www.w3.org/1999/xlink" x="0px" y="0px"
	 width="522px" height="505px" viewBox="0 0 522 505" enable-background="new 0 0 522 505" xml:space="preserve">
<circle fill="#FFFFFF" cx="198" cy="289" r="96.5"/>
<polygon fill="#C49A6C" points="322,505.333 258,505.333 265.275,360.595 258,299.333 322,299.333 316.667,452.667 "/>
<circle fill="#FFFFFF" cx="145.732" cy="125.5" r="96.5"/>
<circle fill="#FFFFFF" cx="225.5" cy="96" r="96.5"/>
<circle fill="#FFFFFF" cx="283.813" cy="96" r="96.5"/>
<circle fill="#FFFFFF" cx="97" cy="172.5" r="96.5"/>
<circle fill="#FFFFFF" cx="174.815" cy="246.099" r="96.5"/>
<circle fill="#C49A6C" cx="193.5" cy="264.5" r="96.5"/>
<circle fill="#C49A6C" cx="308.5" cy="202.833" r="96.5"/>
<circle fill="#C49A6C" cx="372.5" cy="264.5" r="96.5"/>
<circle fill="#C49A6C" cx="225.5" cy="154.5" r="96.5"/>
<circle fill="#C49A6C" cx="425.5" cy="130.5" r="96.5"/>
<circle fill="#C49A6C" cx="308.5" cy="139.5" r="96.5"/>
<circle fill="#C49A6C" cx="108.5" cy="172.5" r="96.5"/>
<circle fill="#C49A6C" cx="149.5" cy="130.5" r="96.5"/>
<circle fill="#C49A6C" cx="280.5" cy="100.5" r="96.5"/>
<circle fill="#C49A6C" cx="225.5" cy="100.5" r="96.5"/>
<circle fill="#C49A6C" cx="361.5" cy="125.5" r="96.5"/>
<circle fill="#C49A6C" cx="418.5" cy="192.5" r="96.5"/>
<g>
	<path fill="#C49A6C" d="M128.518,425.867c0,0,0.011-0.037,0.032-0.11c-0.036,0.005,0.193-0.4,0.382-0.52
		c0.341-0.271,0.79-0.436,1.389-0.633c1.19-0.375,2.943-0.709,5.24-1.042c4.589-0.669,11.33-1.349,19.918-2.119
		c4.294-0.389,9.049-0.82,14.226-1.289c5.18-0.45,10.783-0.937,16.769-1.457c5.991-0.484,12.366-1.001,19.086-1.545
		c6.725-0.452,13.796-0.975,21.18-1.324c14.767-0.735,30.776-1.057,47.706-0.869c16.932,0.157,34.778,1.01,53.229,1.954
		c9.226,0.457,18.603,0.948,28.094,1.353c9.492,0.412,19.1,0.743,28.788,1.029c4.845,0.159,9.709,0.317,14.587,0.478
		c4.881,0.135,9.777,0.298,14.686,0.507c4.912,0.173,9.835,0.373,14.779,0.697c2.475,0.153,4.954,0.328,7.462,0.588
		c1.256,0.133,2.517,0.286,3.822,0.508c0.66,0.118,1.313,0.238,2.056,0.446c0.18,0.048,0.366,0.101,0.58,0.178
		c0.202,0.069,0.4,0.134,0.669,0.263c0.131,0.063,0.233,0.104,0.387,0.188c0.177,0.104,0.35,0.219,0.517,0.339
		c0.125,0.068,0.523,0.463,0.716,0.736c0.156,0.501,0.716,0.44,0.49,2.504c-0.081,0.221,0.098-0.179-0.196,0.552
		c-0.172,0.51-0.933,1.264-0.99,1.26c-0.165,0.125-0.337,0.244-0.513,0.354c-0.152,0.091-0.253,0.137-0.384,0.205
		c-0.267,0.139-0.463,0.214-0.663,0.294c-0.213,0.088-0.397,0.15-0.576,0.209c-0.736,0.25-1.386,0.411-2.042,0.57
		c-1.298,0.305-2.553,0.542-3.804,0.758c-2.498,0.425-4.971,0.77-7.438,1.082c-4.936,0.621-9.852,1.129-14.759,1.588
		c-4.908,0.425-9.805,0.803-14.686,1.152c-4.883,0.323-9.751,0.59-14.6,0.85c-19.395,0.971-38.479,1.613-56.952,2.022
		c-18.471,0.447-36.329,0.502-53.262,0.28c-16.932-0.242-32.941-0.601-47.706-1.514c-14.767-0.811-28.289-1.964-40.266-2.991
		c-5.986-0.525-11.589-1.016-16.77-1.47c-5.177-0.474-9.932-0.909-14.227-1.303c-8.588-0.782-15.329-1.479-19.917-2.164
		c-2.296-0.341-4.048-0.681-5.238-1.061c-0.599-0.199-1.047-0.366-1.388-0.638c-0.382-0.247-0.449-0.796-0.432-0.764
		L128.518,425.867z M129.5,426c0.039,0.016-0.057-0.16,0.055-0.025c0.132,0.117,0.537,0.288,1.069,0.45
		c1.086,0.333,2.818,0.652,5.086,0.958c4.546,0.606,11.288,1.106,19.88,1.413c2.149,0.058,4.414,0.118,6.789,0.181
		c2.377,0.021,4.864,0.041,7.457,0.063c2.593,0.001,5.292,0.003,8.092,0.004c2.8-0.038,5.701-0.078,8.699-0.119
		c11.989-0.194,25.513-0.657,40.255-0.957c14.744-0.404,30.707-0.431,47.593-0.571c16.885-0.122,34.689-0.179,53.108-0.165
		c18.417-0.031,37.449-0.114,56.769-0.468c4.828-0.096,9.676-0.192,14.537-0.289c4.86-0.084,9.731-0.195,14.605-0.353
		c4.875-0.131,9.756-0.292,14.608-0.569c2.425-0.139,4.843-0.311,7.218-0.548c1.185-0.121,2.36-0.263,3.475-0.444
		c0.546-0.093,1.1-0.195,1.537-0.312c0.117-0.027,0.226-0.056,0.3-0.082l0.188-0.058c0.007-0.001,0.05-0.014,0.029,0
		c-0.048,0.024-0.092,0.059-0.13,0.099c0.079-0.08-0.604,0.53-0.666,0.935c-0.172,0.627-0.006,0.048-0.025,0.132
		c-0.286,1.926,0.285,1.687,0.319,2.084c0.082,0.167,0.403,0.419,0.392,0.411c0.039,0.035,0.085,0.063,0.134,0.083
		c0.021,0.008-0.021-0.01-0.025-0.016c-0.005-0.016-0.097-0.054-0.183-0.09c-0.072-0.036-0.18-0.075-0.295-0.113
		c-0.433-0.158-0.982-0.302-1.524-0.437c-1.106-0.265-2.276-0.489-3.456-0.693c-2.365-0.402-4.776-0.744-7.195-1.042
		c-4.843-0.574-9.717-1.043-14.587-1.46c-4.873-0.372-9.745-0.699-14.606-0.997c-4.862-0.265-9.715-0.465-14.549-0.663
		c-19.337-0.791-38.402-0.614-56.839-0.108c-18.438,0.513-36.254,1.253-53.141,1.51c-16.888,0.29-32.851,0.3-47.594,0.074
		c-14.75-0.307-28.271-0.587-40.255-0.836c-5.995-0.104-11.605-0.147-16.791-0.103c-2.593,0.023-5.081,0.046-7.458,0.067
		c-2.375,0.065-4.64,0.129-6.789,0.188c-8.592,0.319-15.334,0.837-19.879,1.459c-2.268,0.313-3.999,0.639-5.084,0.976
		c-0.532,0.165-0.937,0.338-1.068,0.455c-0.061,0.041,0.018-0.007-0.005-0.026c-0.001-0.013-0.008-0.026-0.016-0.036
		c-0.007,0.023-0.013,0.044-0.019,0.062c-0.022,0.073-0.033,0.11-0.033,0.11L129.5,426z"/>
</g>
<circle fill="#EADFA7" cx="155.499" cy="139.5" r="96.5"/>
<circle fill="#EADFA7" cx="226.463" cy="118.5" r="96.5"/>
<circle fill="#EADFA7" cx="329.864" cy="145.5" r="96.5"/>
<circle fill="#EADFA7" cx="377" cy="159.5" r="96.5"/>
<circle fill="#EADFA7" cx="377" cy="209.5" r="96.5"/>
<circle fill="#EADFA7" cx="299" cy="215" r="96.5"/>
<circle fill="#EADFA7" cx="205" cy="209.5" r="96.5"/>
<circle fill="#EADFA7" cx="198" cy="236" r="96.5"/>
<circle fill="#EADFA7" cx="412.365" cy="145.5" r="96.5"/>
<circle fill="#EADFA7" cx="372.5" cy="227" r="96.5"/>
<circle fill="#EADFA7" cx="348.9" cy="242" r="96.5"/>
<polygon fill="#C49A6C" points="243.25,505.333 226.463,454.147 258,505.333 "/>
<polygon fill="#C49A6C" points="249.75,505.416 232.963,442.397 264.5,505.416 "/>
<polygon fill="#C49A6C" points="244.239,503.71 188.299,473.907 251.999,494.607 "/>
<polygon fill="#C49A6C" points="251.834,501.216 250.002,447.38 265.998,505.333 "/>
<polygon fill="#C49A6C" points="338.612,504.37 355.399,453.185 323.862,504.37 "/>
<polygon fill="#C49A6C" points="332.112,504.453 348.899,441.435 317.362,504.453 "/>
<polygon fill="#C49A6C" points="337.623,502.747 393.563,472.944 329.863,493.645 "/>
<polygon fill="#C49A6C" points="330.028,500.253 331.86,446.417 315.864,504.37 "/>
<polygon fill="#EADFA7" points="310.751,505.333 278.25,505.333 281.945,360.595 278.25,299.333 310.751,299.333 308.043,452.667 
	"/>
<circle fill="#FFFFFF" cx="264.5" cy="192.5" r="96.5"/>
<circle fill="#FFFFFF" cx="193.5" cy="154.5" r="96.5"/>
<circle fill="#FFFFFF" cx="242.232" cy="130.5" r="96.5"/>
<circle fill="#FFFFFF" cx="338.732" cy="154.5" r="96.5"/>
<circle fill="#FFFFFF" cx="348.9" cy="192.5" r="96.5"/>
<circle fill="#FFFFFF" cx="225.5" cy="202.833" r="96.5"/>
<circle fill="#FFFFFF" cx="338.732" cy="222" r="96.5"/>
<circle fill="#FFFFFF" cx="386.5" cy="159.5" r="96.5"/>
<polygon fill="#FFFFFF" points="303.313,505.333 283.813,505.333 286.03,360.595 283.813,299.333 303.313,299.333 301.688,452.667 
	"/>
<polygon fill="#FFFFFF" points="244.75,505.333 227.963,454.147 259.5,505.333 "/>
<polygon fill="#FFFFFF" points="256.565,505.416 239.778,442.397 271.314,505.416 "/>
<polygon fill="#FFFFFF" points="332.095,505.333 348.882,454.147 317.345,505.333 "/>
<polygon fill="#FFFFFF" points="325.595,505.416 342.382,442.397 310.845,505.416 "/>
<polygon fill="#FFFFFF" points="344.613,505.333 361.4,454.147 329.863,505.333 "/>
<polygon fill="#FFFFFF" points="335.204,505.333 388.399,467.605 323.862,495.903 "/>
</svg>
