<?xml version="1.0" encoding="utf-8"?>
<!-- Generator: Adobe Illustrator 16.0.0, SVG Export Plug-In . SVG Version: 6.00 Build 0)  -->
<!DOCTYPE svg PUBLIC "-//W3C//DTD SVG 1.1//EN" "http://www.w3.org/Graphics/SVG/1.1/DTD/svg11.dtd">
<svg version="1.1" id="Layer_1" xmlns="http://www.w3.org/2000/svg" xmlns:xlink="http://www.w3.org/1999/xlink" x="0px" y="0px"
	 width="1173.477px" height="1172.516px" viewBox="0 0 1173.477 1172.516" enable-background="new 0 0 1173.477 1172.516"
	 xml:space="preserve">
<g>
	<g>
		<defs>
			<ellipse id="SVGID_1_" cx="586.739" cy="585.779" rx="243.205" ry="243.265"/>
		</defs>
		<use xlink:href="#SVGID_1_"  overflow="visible" fill="#00FF0C"/>
		<clipPath id="SVGID_2_">
			<use xlink:href="#SVGID_1_"  overflow="visible"/>
		</clipPath>
		<use xlink:href="#SVGID_1_"  overflow="visible" fill="none" stroke="#00FF0C" stroke-width="18" stroke-miterlimit="10"/>
	</g>
</g>
<g>
	<path fill="#00FF0C" d="M586.855,1172.516h-0.116c-10.674,0-21.483-0.294-32.13-0.874l31.593-578.913l0.509-4.659l0.028,0.484
		l-12.383,232.218c4.109,0.219,8.275,0.331,12.383,0.331l0.116-0.001V1172.516z M619.587,1171.601l-19.563-350.88
		c4.325-0.247,8.704-0.62,13.014-1.108l-25.722-226.84l-0.205-3.663l0.659,3.859l64.51,575.892
		C641.458,1170.072,630.459,1170.994,619.587,1171.601z M522.006,1168.95c-10.901-1.206-21.908-2.738-32.714-4.554l96.236-572.506
		l0.582-2.588l-0.469,4.248l-37.393,224.354c4.099,0.683,8.263,1.265,12.389,1.729L522.006,1168.95z M684.996,1164.259
		l-58.759-346.524c4.309-0.736,8.655-1.605,12.922-2.585l-51.313-223.821l-0.571-3.372l0.641,2.211l129.329,567.691
		C706.613,1160.279,695.763,1162.434,684.996,1164.259z M456.997,1158.031c-10.711-2.425-21.494-5.189-32.052-8.216l161.263-562.517
		l0.026-0.073l-0.758,3.346l-63.17,221.49c4.054,1.157,8.19,2.218,12.308,3.156L456.997,1158.031z M749.329,1149.586
		L624.397,716.171l27.688,95.628c4.176-1.21,8.37-2.551,12.471-3.986l116.25,331.729
		C770.46,1143.169,759.869,1146.548,749.329,1149.586z M393.4,1139.798c-10.389-3.625-20.811-7.597-30.974-11.803l185.187-447.479
		l-50.606,122.757c4.009,1.653,8.114,3.213,12.209,4.642L393.4,1139.798z M811.64,1127.752L587.22,587.115l0.004,0.019l-0.025-0.07
		l0.105,0.419l-0.221-0.697l0.049,0.102l-0.021-0.074l0.04,0.114l-0.083-0.238l0.026,0.077l-0.023-0.041l0.006,0.045l-0.068-0.228
		l0.045,0.108l-0.027-0.08l0.02,0.03l-0.095-0.391l0.037,0.046l-0.021-0.121l0.041,0.07v-0.024l0.066,0.184l0.158,0.378
		l-0.142-0.198l0.045,0.2l0.285,0.451l0.264,0.636l-0.512-0.924l0.028,0.12l1.095,2.269l89.022,213.626
		c3.893-1.623,7.791-3.373,11.597-5.204l152.815,316.539C831.873,1119.015,821.749,1123.557,811.64,1127.752z M332.241,1114.493
		c-9.879-4.758-19.754-9.861-29.349-15.169l170.112-307.568c3.848,2.121,7.802,4.158,11.755,6.056L332.241,1114.493z
		 M870.987,1099.104l-281.76-508.488l-1.153-2.381l1.808,2.869l111.297,200.261c3.644-2.026,7.278-4.174,10.813-6.392
		L899.3,1082.361C890.063,1088.18,880.537,1093.813,870.987,1099.104z M274.52,1082.576c-9.236-5.808-18.429-11.955-27.324-18.271
		l205.521-289.49l-2.07,2.923c3.565,2.525,7.249,4.981,10.948,7.301l122.039-194.63l1.577-2.221l-1.542,2.796L274.52,1082.576z
		 M926.575,1064.098L590.099,590.776l-1.883-2.98l1.272,1.593l133.939,187.927c3.403-2.424,6.781-4.971,10.048-7.575
		l219.263,274.638C944.24,1051.163,935.438,1057.798,926.575,1064.098z M220.963,1044.556c-8.517-6.791-16.951-13.913-25.072-21.168
		l322.878-361.425l-88.626,99.469c3.226,2.873,6.573,5.694,9.952,8.383L220.963,1044.556z M977.783,1023.213L588.912,588.299
		l-1.354-1.689l0.026,0.023l156.279,174.326c3.152-2.825,6.266-5.774,9.26-8.766l248.466,248.508
		C993.9,1008.39,985.891,1015.963,977.783,1023.213z M172.072,1000.884c-7.676-7.666-15.238-15.653-22.479-23.737l434.412-389.032
		l1.918-1.538L411.646,743.001c2.831,3.154,5.785,6.271,8.785,9.268L172.072,1000.884z M1024.108,976.895L668.409,658.748
		l93.869,83.755c2.878-3.226,5.703-6.575,8.4-9.958l274.587,219.326C1038.477,960.368,1031.359,968.787,1024.108,976.895z
		 M128.386,952.088c-6.794-8.499-13.439-17.303-19.749-26.167l473.262-336.889l2.83-1.79l-1.57,1.257l-187.88,134.078
		c2.432,3.407,4.984,6.788,7.594,10.059L128.386,952.088z M1065.049,925.631L778.61,722.001c2.529-3.568,4.992-7.258,7.319-10.964
		L591.186,588.761l-2.066-1.468l2.693,1.486l491.531,309.526C1077.529,907.538,1071.374,916.732,1065.049,925.631z M90.335,898.625
		c-5.814-9.221-11.445-18.731-16.736-28.265l508.282-282.08l2.545-1.234l-2.423,1.528L381.205,700.313
		c2.036,3.659,4.193,7.302,6.417,10.841L90.335,898.625z M1100.122,869.922L792.646,699.641c2.119-3.84,4.158-7.791,6.061-11.744
		l316.582,152.724C1110.533,850.479,1105.43,860.338,1100.122,869.922z M58.428,841.115c-4.769-9.862-9.318-19.988-13.523-30.101
		l540.623-224.801h-0.001l0.053-0.021l-0.27,0.071l0.313-0.089l-0.022,0.011h0.001l-0.023,0.011l0.376-0.118l-0.058,0.006
		l0.127-0.045l-0.055,0.034l0.179-0.064h-0.037l0.08-0.03l-0.365,0.114l0.198-0.084h-0.047l0.065-0.036l-0.075,0.036h-0.367
		l-0.617,0.179l-1.493,0.168l1.395-0.32l0.469-0.026h-0.354l0.589-0.136l0.345,0.039l-0.274,0.079l0.456-0.06l0.009,0.001
		l-0.074,0.036l0.119-0.021l-0.024,0.016l0.093-0.019l0.036,0.004l-0.023,0.009l0.027-0.008l0.037,0.004l0.03-0.001l-0.006,0.004
		l0.025,0.002l0.087-0.034l-0.008,0.012l0.012-0.003l-0.007,0.013l0.033-0.021h-0.003l0.01-0.012l-0.002,0.01l0.032-0.009
		l-0.03-0.002l0.023-0.03l0.025,0.006l-0.003-0.025l0.009,0.005l0.003-0.013l-0.002,0.013l0.004,0.002l0.008-0.018l0,0l0.002-0.003
		v0.002l0.008-0.003l0.014,0.01v-0.001l0.009,0.015l-0.01-0.005v-0.008l-0.003,0.005l-0.018-0.011l0.004,0.025l0,0l0.043,0.023
		l-0.001-0.006l0.007,0.009l0.003-0.011l-0.003-0.006l0.001-0.001l-0.009-0.012l0.014,0.009l0.002-0.007l-0.024-0.035l-0.002,0.002
		l-0.001-0.005l0,0l-0.006-0.007l0.001,0.007l-0.003,0.001l-0.013-0.018l0.001-0.004l-0.001-0.001l0.003-0.003l-0.003-0.005
		l0.01-0.014v-0.006l0.002,0.002l0.001-0.007l0.001,0.007l0.002-0.004l-0.003-0.003l0.01-0.009l-0.01-0.001l0.017-0.008l0.002,0.003
		l0.012-0.008l0.01,0.009l0.017-0.017l0.006,0.021h-0.017l0.018,0.002l0.006-0.002l-0.005,0.005l0.013,0.022l-0.004,0.008v0.003
		l-0.002,0.002l0.002-0.001l0.034,0.021v-0.001l-0.002-0.005l0.004,0.004l0.009-0.01l-0.016-0.019l0.045-0.016l-0.003,0.009
		l0.015-0.015l-0.006,0.002l0.001-0.005l0.006,0.001l0,0l0.002,0.001l-0.003,0.002l0.004-0.001l0.009,0.008l-0.007-0.007
		l0.003,0.001v-0.004l0,0l-0.004-0.002l-0.002,0.002v-0.001l0.001-0.001l-0.006-0.004h0.008h-0.009l0.004-0.013l-0.001-0.007
		l-0.006,0.016l-0.043-0.042l-0.001,0.001l0.043,0.042v0.003l-0.057-0.02l-0.001,0.003l0.047,0.017h-0.054h0.054l0.009,0.003
		l-0.05,0.025l-0.015-0.023l-0.002,0.004l-0.007-0.009h0.006h-0.019l0.003-0.011l-0.01-0.011l0.007-0.006l0.006,0.003l0.002-0.004
		l-0.005-0.001l0.003-0.001l-0.001-0.002l0.015-0.038l0.014,0.013l0.001-0.001l-0.014-0.014l0.002-0.007l-0.008,0.002l-0.001-0.001
		l-0.001,0.001h0.001l-0.007,0.005l0.002-0.003l-0.019,0.005l-0.006-0.013l0.004-0.009l-0.006,0.003l-0.004-0.009l-0.006,0.008
		l0.001,0.005l-0.019,0.021l-0.008-0.008l-0.008,0.004l0.002-0.011l-0.001-0.001l0.017-0.023l-0.017,0.02v-0.01l-0.005,0.009
		l-0.003-0.003l-0.003,0.001l0.001,0.013l0.003-0.003l-0.003,0.01v0.004l-0.006,0.007l-0.002-0.001l0.001,0.003l-0.001,0.001
		l0.005,0.002h-0.002l0.008,0.038l-0.007,0.005l-0.003-0.013l-0.006,0.017l-0.004-0.003l-0.003,0.004l0.001-0.006l-0.009-0.007
		l-0.007,0.01v-0.001l0.007-0.01l-0.011-0.008l0.003,0.016l-0.018-0.027l0.001-0.001l-0.001,0.001l-0.001-0.001l-0.003,0.002
		l-0.013-0.015l-0.006,0.011l0.004,0.008l-0.022,0.007l0.007,0.003l-0.031,0.016l-0.006-0.003l-0.001,0.002l0.004,0.003
		l-0.019,0.006h0.006l-0.005,0.002l-0.001-0.002l-0.014,0.009l-0.03-0.009h0.042l-0.04-0.001l-0.003,0.001v-0.001h0.001l-0.03-0.008
		l0.015,0.008h-0.332l0.008,0.002l0.326-0.001l0.005,0.003l-0.144,0.041l0.052,0.012l0.093-0.053l0.023,0.014l-0.092,0.044
		l0.018,0.004l-0.072,0.046l-0.036-0.006l-0.029,0.015l-0.019-0.001l0.029-0.017l-0.104-0.018l-0.087,0.024l-0.395-0.021
		l0.212-0.049l-0.216-0.036l0.388-0.003h-1.226l0.49-0.056l-0.117-0.02l-0.728,0.042l0.3,0.033H411.032l158.101-0.823
		l-204.687-11.315l209.71,11.289l2.807-0.015l2.882,0.32l3.721,0.2l-3.193-0.538l0.233-0.001l-0.694-0.077l-225.222-37.999
		c-0.726,4.302-1.34,8.676-1.824,13L3.532,521.356c1.193-10.844,2.71-21.797,4.509-32.553l572.33,95.685l1.753,0.397l0.609-0.003
		l1.301,0.218l-0.767-0.221l0.246-0.001l-1.168-0.264l-134.312-38.595l135.843,38.856l0.267-0.001l1.176,0.411l-0.05-0.012
		l0.218,0.068l-0.091-0.032l0.265,0.076l-0.048-0.023l0.327,0.103l-0.131-0.069l0.026,0.004l-0.381-0.238l-0.7-0.29l0.236-0.002
		l-0.523-0.328l0.68,0.327h0.036l0.077,0.056l0.607,0.293l-0.466-0.35h0.027l-0.653-0.521l1.363,0.858l-0.062-0.076l-0.369-0.264
		h0.084l0.14,0.112l-0.126-0.112h0.018L171.35,171.393c7.681-7.698,15.682-15.284,23.776-22.541l234.576,261.665
		c-3.182,2.851-6.327,5.827-9.35,8.849l165.474,165.502h0.017l-60.811-68.012l59.832,66.742l1.032,1.269l-0.399-0.563l0.609,0.679
		l-0.065-0.117h0.114l0.182,0.375l0.145,0.176l-0.011-0.007l0.013,0.014l-0.002-0.005l0.013,0.01l-0.015-0.028l0.011,0.012
		l-0.039-0.17l0.006,0.038l-0.038-0.095l-0.256-0.319l0.1-0.001l0.054,0.075l-0.031-0.075h0.079l-0.229-0.365l-0.228-0.546
		l0.423,0.762l-0.022-0.099l0.079,0.248l0.026-0.001l0.007,0.014l-0.001-0.014h0.006l-0.01-0.035l0.026,0.035l-0.033-0.095
		l0.039,0.095h0.081l0.011,0.203l-0.051-0.104l0.081,0.194l-0.003,0.028l-0.022-0.036l0.016,0.094v0.004l-0.012-0.033l0.009,0.063
		l-0.003,0.03l0.002,0.051l-0.007-0.009l-0.008,0.072l0.022,0.055l-0.008-0.006l0.039,0.06l0.001-0.02l0.005,0.004l0.001-0.01
		l-0.006-0.005l0.001-0.003l0.007,0.004l0.011-0.069l-0.014-0.017l0.003-0.042l-0.021-0.058l0.021,0.053l0.001-0.022l0.02,0.027
		l0.01-0.06l0.022,0.052l-0.01,0.039l0.057,0.079l-0.02,0.034l-0.048-0.061l-0.001,0.001l0.047,0.092l0.002-0.004l0.018,0.003
		l0.002-0.006l-0.01-0.013l0.02-0.03l0.005,0.013l0.003-0.005l0.002,0.002l0.006-0.02v-0.002l0.005-0.019l-0.001-0.002l0.005-0.011
		l-0.011-0.018l-0.004,0.008l-0.059-0.121l-0.002,0.012l-0.025-0.04l0.004-0.021l-0.009-0.02l0.009,0.018l0.01-0.057l-0.032-0.112
		l0.013-0.241l0.075-0.001l0.003,0.009l0.041-0.009l-0.02-0.119l0.071-0.426l0.029,0.269l-0.063,0.276l0.087-0.001v0.183l0.02-0.069
		l0.013,0.105l-0.008-0.123l0.056-0.096l-0.042,0.274v0.008l0.031-0.063l-0.005,0.087l0.001-0.003l-0.022,0.136v-0.01l-0.043,0.062
		l-0.007,0.093l-0.011-0.068l-0.011,0.016l0.016,0.069l-0.002,0.006l0.003-0.004v0.005l0.007-0.014v-0.003l0.005-0.014v0.011
		l0.048-0.061l-0.004-0.078l0.011-0.028l0.002,0.022l-0.004,0.079l0.012-0.015l0.009,0.083l0.01-0.008l-0.009,0.019v0.004
		l-0.02,0.02l-0.001-0.007l-0.044,0.057l-0.001-0.001l-0.004,0.003l0.002,0.002h-0.001l0.001,0.008l-0.007,0.014l0.009-0.008
		l0.004,0.019l-0.003,0.002l0.005,0.004h0.001v-0.003l0.009,0.001l0.019-0.004l-0.001,0.007l0.003,0.001l-0.003,0.012l0,0
		l-0.007,0.021h0.005l-0.001,0.017l0.018-0.016l-0.026,0.026l-0.001-0.001l0.006-0.007l-0.007,0.007h-0.001v0.002l-0.005-0.003
		v-0.002l-0.003,0.001l-0.02-0.004v0.008l-0.016-0.012l0.008,0.016l-0.008,0.003l0.016,0.014l0.002-0.001l0.001,0.005l0.004-0.004
		l0.001,0.001l-0.004,0.004l0.004,0.007l0.003-0.009l0.006,0.003l-0.004-0.006l0.002-0.006l-0.004,0.004v-0.002l0.017-0.017
		l-0.012,0.014l0.009-0.003l-0.005,0.018l0.014,0.009l-0.004-0.028l0.001-0.001l0.007,0.028v0.003l0.004,0.016l-0.005-0.003v0.001
		l-0.018-0.023l-0.003,0.011l-0.005-0.002l0.004,0.006l-0.002,0.006l-0.01-0.007l0.004-0.008l-0.007-0.003v0.009l-0.007-0.005
		l-0.003,0.004l0.009,0.013l0.001-0.002l0.016,0.037l0.005-0.005l0.008,0.01l-0.004,0.002h0.001l0.004-0.001l0.004,0.003v0.004
		l0.004,0.004v0.001l0.006,0.009l-0.003,0.004l-0.008-0.003v0.014l-0.004-0.005l-0.003,0.006l-0.022-0.026l0.007-0.003l-0.002-0.001
		l-0.003,0.002l0.002-0.004l-0.002-0.003l-0.005,0.007h-0.002l-0.009,0.006l0.008-0.003l-0.002,0.007l0.005-0.005v0.057
		l-0.016-0.014l-0.002,0.008l0.01,0.012l-0.005,0.002l0.001,0.004l-0.005-0.003l-0.006,0.003l0.012,0.004h0.001l0.002,0.001h-0.001
		l0.005,0.011l-0.001,0.001l0.001-0.001l0.004,0.028l-0.016,0.011l-0.004-0.008l-0.004,0.008l-0.012-0.011v0.001l0.011,0.012
		l-0.008,0.01l0.005-0.002l-0.007,0.012h0.001l-0.004,0.008l-0.008-0.002l-0.012,0.025l0.002,0.003v0.002v0.002h-0.003l0.001,0.002
		h0.001l0.001,0.001v-0.002h0.001l0.002,0.005l-0.001-0.001h-0.001l-0.003-0.001v0.001l-0.001-0.001v-0.001l-0.013-0.006
		l0.006-0.001l-0.001-0.001l-0.007,0.001l-0.013-0.006l-0.01,0.008l-0.027-0.002l0.015-0.008l-0.003-0.002l0.008-0.005l-0.03-0.015
		l0.018-0.02l0.025,0.023l0.002-0.001l-0.027-0.022l0.003-0.004l-0.013-0.015l-0.008,0.004l0.017,0.015l-0.028-0.009l-0.007,0.006
		v-0.002l0.001-0.004l-0.002,0.001l-0.002-0.003l-0.009,0.008l-0.011-0.008l0.01-0.003l-0.021-0.008l-0.002,0.001h0.001
		l-0.001,0.002l0.003,0.011l0.006-0.001l0.009,0.009l-0.002,0.001l-0.011-0.005l0.001,0.009l-0.022,0.01l0.011,0.021l-0.003,0.004
		l0.009,0.007l-0.03-0.002l0.009,0.005l-0.01,0.009l0.02-0.001l-0.003-0.005l0.008,0.005l0.011-0.001l0.004,0.008v0.001l0.002,0.004
		l0.009-0.01l0.007,0.01l0.004-0.003l0.002,0.003l-0.006,0.001l0.005,0.008l0.007-0.006l0.006,0.005l-0.007,0.004l0.008,0.004
		l-0.003,0.003l-0.011-0.002l0.001,0.008l-0.008,0.006l0.009,0.018h-0.032l0.016,0.001l-0.016,0.002l-0.001-0.003l-0.003,0.002
		v0.002l-0.004,0.001l0.001-0.001l-0.012,0.009h0.004l-0.023,0.014l-0.002-0.009l0.013-0.003h-0.009l0.01-0.009l-0.013,0.002
		l0.003-0.004l-0.006,0.004l-0.003-0.014l0.016,0.002l0.013-0.014l0.005,0.008l-0.011,0.007l0.007,0.001l0.006-0.005l0.001,0.001
		l-0.001,0.004l0.005,0.002v-0.001l0.003,0.001l-0.002-0.005l0.01-0.015l-0.006,0.004l0.006-0.02l-0.004-0.001l-0.011,0.024
		l-0.005-0.01l0.015-0.015l-0.001-0.001l0.003-0.002l-0.002-0.002l-0.012,0.003l-0.021-0.019l-0.005,0.005l0.006,0.01l-0.016-0.002
		l-0.007,0.006l-0.015-0.01l-0.009,0.021l0.001,0.004h-0.003l0.002-0.003l-0.015,0.007l0.007,0.01l-0.004,0.004v0.006l-0.003,0.009
		l0.005-0.003v0.001l0.011-0.006l0.002,0.011l-0.016,0.003l0.001-0.002l-0.015,0.002l0.005-0.012l-0.021,0.012l-0.003-0.027
		l-0.028,0.027l0.026-0.027l-0.022,0.005l0.002-0.009l0.022,0.003l-0.005-0.039l0.022-0.002l-0.02-0.003l-0.003,0.002l-0.01-0.022
		l-0.005,0.018l-0.011-0.002l0.004-0.008l-0.007,0.008l-0.028-0.005l-0.001,0.018l0.019-0.001l-0.025,0.029h0.003l-0.085,0.056
		l0.013-0.016l-0.021,0.005l0.006-0.009l-0.061,0.021l0.011-0.01l-0.329,0.082l0.054-0.037l-0.104,0.012l-0.156,0.073l0.055-0.01
		l-0.38,0.24l-0.71,0.296l0.888-0.493l-0.105,0.024l-2.152,1.041l-213.756,89.225c1.628,3.902,3.383,7.809,5.221,11.618
		L58.428,841.115z M586.526,585.679l0.013,0.017l0.015-0.007v0.002v-0.003l0.016-0.009l-0.023-0.026l0.023-0.005l0.005,0.023
		l0.004-0.021l0.01,0.003l0.004-0.011l-0.001,0.012l0.014,0.004v0.003l0.002-0.002l0.003,0.003l0.002-0.002l0.005,0.001
		l-0.002-0.005l0.012,0.012h0.001l-0.004-0.005l0.007,0.002l0.009-0.006l-0.005,0.008l0.008,0.002l0.006-0.011l-0.005-0.002
		l0.014-0.016l-0.016,0.016l-0.005-0.003l-0.015,0.009l-0.007-0.008l0.011-0.005l-0.006-0.002l0.038-0.02l-0.014-0.012l-0.005,0.001
		l0.002-0.004l-0.007-0.006l-0.035,0.012l0,0l-0.004,0.017l-0.006-0.006l0.001-0.01h-0.008l0.008-0.022l-0.001-0.002h-0.002v-0.003
		l-0.008-0.02h0.003l-0.009-0.014l0.011,0.013l0.008-0.003l-0.003-0.002l0.003,0.001l0.002-0.014l-0.015-0.002l0.002,0.007
		l-0.015-0.012l0.001,0.004l-0.014-0.002l0.015,0.02l-0.044-0.01v0.004l-0.022-0.02l0.013,0.014l-0.01-0.003l0.004,0.026
		l0.015-0.002l-0.002,0.016h0.011l-0.004-0.016l0.008-0.001l0.02,0.018l-0.019-0.018l0.031-0.004l0.011,0.023l-0.01,0.002
		l0.001,0.012l-0.012-0.011l0.013,0.02l-0.013,0.001l-0.024-0.016l-0.011,0.001l-0.004-0.001l-0.001,0.018l-0.003-0.003l0.001,0.004
		h-0.011l-0.002-0.014l-0.029,0.005l0.015,0.01l-0.006,0.001l0.025,0.032l-0.003-0.028l0.011,0.004l-0.003,0.027l0.009-0.002
		L586.526,585.679z M586.455,585.59l0.034,0.002l-0.018-0.008l0.012-0.001l-0.074-0.05l0,0l-0.039-0.004l0.011,0.018l-0.036-0.021
		l0.012,0.011l-0.375-0.102l0.082,0.06l-0.043-0.005l0.305,0.093l-0.01-0.009l0.094,0.018l0.003-0.001l-0.002-0.003l0.032,0.001
		l-0.001-0.001l0.011-0.001L586.455,585.59z M586.138,585.572l0.01,0.001l-0.411-0.149l0.031,0.018l-0.245-0.086l0.294,0.112
		l-0.03-0.003l0.249,0.103l0,0l0.07,0.004l-0.034-0.021L586.138,585.572z M584.836,585.503l0.735,0.039l-0.572-0.164l-1.382-0.152
		L584.836,585.503z M1128.811,810.446L692.229,629.433l111.939,46.238c1.658-4.014,3.225-8.126,4.658-12.225l331.809,116.032
		C1137.001,789.865,1133.023,800.284,1128.811,810.446z M33.102,780.21c-3.634-10.347-7.021-20.936-10.064-31.473l425.09-122.833
		l-87.371,25.355c1.213,4.18,2.559,8.376,4,12.48L33.102,780.21z M496.965,772.469l87.393-182.04l1.548-2.8l-0.479,1.162
		L496.965,772.469z M1150.676,747.928L588.356,586.343l-0.331-0.115l2.78,0.632l222.162,63.548c1.164-4.07,2.23-8.221,3.175-12.349
		l342.757,77.879C1156.469,726.631,1153.702,737.395,1150.676,747.928z M478.818,721.264l105.869-133.09l0.816-0.914l-1.537,2.171
		L478.818,721.264z M14.752,716.694c-2.442-10.687-4.612-21.584-6.45-32.393l346.503-58.891c0.741,4.311,1.612,8.66,2.594,12.927
		l222.946-51.26l3.779-0.643l-1.601,0.465L14.752,716.694z M713.482,686.859l-124.585-99.228l-0.686-0.614l2.431,1.724
		L713.482,686.859z M1165.297,683.584l-572.203-96.542l-2.907-0.656l4.59,0.511l224.075,37.462
		c0.681-4.073,1.262-8.215,1.728-12.321l349.287,38.891C1168.653,661.812,1167.117,672.799,1165.297,683.584z M745.957,662.448
		l-155.16-74.591l-2.289-1.269l1.396,0.576L745.957,662.448z M3.703,651.731c-1.218-10.797-2.147-21.78-2.761-32.643l350.861-19.86
		c0.251,4.315,0.627,8.684,1.116,12.982l227.268-25.91l3.405-0.192l-4.026,0.689L3.703,651.731z M1172.581,618.313l-579.316-32.025
		l-2.537-0.279h-1.263l0.621,0.104l-2.344-0.13l0.09,0.026h-0.326l0.069,0.033l-0.239-0.082l0.076,0.049h-0.015l-0.203-0.071
		l-0.01,0.002l0.043,0.015l-0.08-0.004l0.074,0.059l-0.182-0.054l0.009,0.012l-0.014-0.011l-0.01,0.001l-0.01-0.009l0.005,0.009
		l-0.003,0.001l-0.011-0.012l0.006-0.001l-0.032-0.028l0.003,0.023l-0.02-0.001l0.003,0.004l-0.023-0.005l0.001-0.001l-0.01-0.019
		h0.011l0.001,0.001l0.001-0.002l0.014,0.018l-0.009-0.018l0.028-0.001l-0.042-0.038l0.002,0.012l-0.002,0.001l-0.016-0.033v0.006
		l-0.004-0.007l0.002-0.002l-0.005-0.01l0.009,0.003v0.005l0.006-0.004l0.022,0.008v-0.004l-0.019-0.006l0.009-0.006l-0.009-0.013
		l-0.005,0.004v-0.011l-0.001,0.004l-0.005-0.011l0.004,0.019l-0.015,0.005l0.003-0.001l-0.003-0.014l-0.004,0.006l-0.003-0.007
		l-0.004,0.003l0.003-0.005l-0.007-0.013l0.012-0.007l-0.002-0.006v-0.001l-0.001-0.007l0.006-0.005l-0.006,0.002l-0.002-0.008h0.01
		h-0.002l0.003,0.004v-0.001v0.001l0,0v0.003l0.002-0.002l0.005,0.008l0.002-0.005l0.001,0.002v-0.004l0.004-0.006h-0.009
		l0.005-0.005l0,0l0,0l0.009-0.007l-0.003-0.003l0.007-0.01l0.002,0.001v0.005l0.002-0.005l0.005,0.002l0.005-0.004l-0.006-0.005
		l0.004-0.007l0.01,0.005l0.001-0.001l0.002,0.015l-0.006-0.005l-0.002,0.004l0.008,0.004l-0.021,0.016h0.029h-0.007l0.001,0.004
		l-0.005,0.003v-0.007h-0.029l0.004,0.004l-0.005,0.014h0.004l-0.001,0.004l0.002,0.004l-0.003,0.002l0.021,0.031l0.002-0.001v0.001
		l0.016-0.012l0.004,0.037l-0.001-0.001l0.014,0.021l-0.008,0.001l0.005,0.011l-0.007-0.01h-0.001l0.004,0.034l0.017-0.002
		l0.01,0.015v-0.023l0.004,0.008h0.017l-0.021-0.038l0.135,0.048l0.009-0.002l-0.038-0.013l0.058-0.004l-0.071-0.05l-0.053,0.012
		l0.04,0.032l-0.072-0.025l-0.007,0.002l-0.023-0.059l0.023,0.019l0.001-0.046h-0.001v-0.018h0.003l0.006-0.001l0.016,0.005
		l-0.004,0.001l0.001,0.001l0,0l0.006,0.003l0.001-0.001l0.004,0.001l0.006-0.003l-0.003-0.001h0.001v-0.001l0.17-0.063
		l-0.027-0.006l0.123-0.061l0.085,0.015l0.052-0.015l-0.072-0.009l0.084,0.005l0.325-0.094l-0.309,0.018l0.263-0.127l0.701-0.08
		l0.698-0.202l-1.392,0.277l0.028-0.013l-0.057,0.02l0.019-0.002l-0.454,0.188l0.088-0.055l-0.029,0.001l0.062-0.021l-0.207,0.065
		l-0.065-0.007l0.032-0.026l-0.107,0.018h-0.007l0.008-0.012l-0.021,0.001v-0.001l-0.02,0.007l0.01,0.002l0,0l-0.011-0.001
		l-0.007,0.006v-0.005l-0.003,0.001l0.003-0.003l-0.015-0.002l0.002-0.001h-0.01v-0.002l0.01,0.001l0.085-0.084l-0.012,0.003
		l0.041-0.057l-0.102,0.064l0.024-0.027l-0.024,0.021v-0.009l-0.015,0.007l0.045-0.112l-0.031,0.022v-0.003l-0.003,0.003
		l0.005-0.045l-0.002,0.002v-0.006l-0.014,0.021l0.039-0.168l-0.002,0.007l0.037-0.047l0.13-0.313l-0.126,0.178l0.044-0.191
		l0.088-0.001l0.169-0.408l0.636-1.016l-0.438,0.913l-0.362,0.511h0.115l-0.006,0.016l0.012-0.016l0.113-0.001l0.255-0.463
		l0.563-0.706l-0.612,0.972l-0.175,0.197h0.052l-0.156,0.247l0.093-0.082l0.158-0.166l-0.066,0.083l0.299-0.268l412.994-414.565
		c7.713,7.684,15.311,15.687,22.583,23.789L761.899,428.629c-2.848-3.176-5.821-6.316-8.841-9.333L587.893,584.633l87.4-78.27
		l-86.423,77.567l-1.157,0.927l0.052-0.001l0.36-0.257l-0.285,0.257h0.06l-0.198,0.124l-0.205,0.184l1.499-0.831l-0.73,0.521h0.089
		l-0.274,0.134l-0.56,0.398l0.423-0.176l0.564-0.357l0.185-0.001l-0.33,0.185l0.443-0.185l0.146-0.001l0.861-0.419l87.843-36.525
		l-88.506,36.943l0.249-0.001l550.714-194.26c3.659,10.376,7.069,20.992,10.135,31.554l-337.579,97.969
		c-1.195-4.112-2.521-8.242-3.94-12.283l-219.321,77.021l0.193-0.001l-1.402,0.425l570.363-131.136
		c2.452,10.669,4.634,21.554,6.483,32.348L818.621,545.84c-0.714-4.122-1.547-8.271-2.478-12.345l-222.979,50.973l-2.171,0.372
		l0.556-0.003l-1.467,0.336l3.014-0.344l0.499-0.003l0.969-0.164l575.128-65.57c1.233,10.804,2.176,21.789,2.804,32.648
		l-350.84,20.286c-0.244-4.123-0.603-8.294-1.066-12.406l-223.372,25.188l3.734-0.02l-7.311,0.423l-4.597,0.519l0.637,0.034
		l17.835-1.01l214.541-1.117c0.003,0.508,0.005,1.017,0.006,1.524l351.413-0.92l0.002,1.536
		C1173.479,596.588,1173.177,607.535,1172.581,618.313z M594.234,586.009l227.494,12.246c0.218-4.062,0.331-8.181,0.335-12.246
		H594.234z M588.298,585.813l0.127,0.021l0.478-0.027l-0.284-0.03L588.298,585.813z M587.71,585.715l0.331,0.056l0.206-0.035
		l-0.423-0.046L587.71,585.715z M587.914,585.668l0.553,0.03l1.677-0.285l-1.49,0.086L587.914,585.668z M587.109,585.512
		l-0.017,0.016l0.013-0.01l-0.004,0.008l0.216-0.055l-0.018,0.002l0.344-0.275l-0.398,0.192l-0.131,0.115l0.057-0.079l-0.011,0.005
		l-0.068,0.083L587.109,585.512L587.109,585.512z M587.339,589.111l-0.301-1.307l-0.028-0.765l0.158,0.545L587.339,589.111z
		 M586.407,588.951l0.071-1.276l0.167-0.748l0.025,0.444L586.407,588.951z M586.144,588.234l0.241-1.404l-0.101,0.911
		L586.144,588.234z M588.269,588.202l-0.66-0.928l-0.294-0.607l0.331,0.414L588.269,588.202z M585.453,588.146l0.444-0.927
		l0.422-0.594l-0.171,0.415L585.453,588.146z M0.006,587.918L0,586.009C0,586.646,0.003,587.281,0.006,587.918z M585.271,587.796
		l0.579-0.923l0.222-0.248l-0.301,0.543L585.271,587.796z M586.69,587.257l-0.04-0.351l0.049-0.215l0.043,0.254L586.69,587.257z
		 M588.762,587.238l-1.016-0.637l-0.197-0.178l0.626,0.347L588.762,587.238z M584.476,587.198l0.777-0.554l0.568-0.275l-0.33,0.264
		L584.476,587.198z M587.922,587.192l-0.297-0.334l-0.278-0.438l0.069,0.062L587.922,587.192z M585.217,587.029l0.362-0.325
		l0.559-0.353l0.09-0.113l-0.088,0.112l0.017-0.011l-0.056,0.059l0.033-0.042l-0.044,0.05L585.217,587.029z M588.895,586.941
		l-0.827-0.397l-0.461-0.327l0.395,0.162L588.895,586.941z M586.52,586.916l0.023-0.439l0.049-0.089l-0.001-0.014l-0.048,0.098
		l0.041-0.125l-0.037,0.06l0.031-0.145l-0.003-0.018l0.026-0.078l0.003,0.056l0.012-0.015l0.008,0.045l0.037-0.092l-0.002-0.014
		l0.044-0.087l-0.009-0.017l0.01,0.016l0.013-0.031l0.007,0.027l0.004-0.005l0.009,0.02l-0.005,0.011l0.007,0.021l-0.003,0.007
		l0.006,0.01l0.001-0.002l0.003,0.009l0,0l0.006,0.021l-0.008-0.015l-0.048,0.17l-0.017-0.07l0.06-0.108l-0.007-0.011l-0.059,0.094
		v-0.001l-0.045,0.072l0.003,0.014l-0.02,0.039l0.002,0.02l0.021-0.038l0.021,0.126l-0.031,0.11l0.015,0.253l-0.024-0.218
		L586.52,586.916z M589.073,586.363l-1.324-0.249l0.741,0.082L589.073,586.363z M584.174,586.009h-1.422l1.782-0.203l-0.384-0.021
		l0.602-0.004l0.02,0.002l0.732-0.002l-0.295,0.051l0.203,0.022l-0.254-0.014L584.174,586.009z M579.847,586.009h-81.44
		l85.301-0.224L579.847,586.009z M351.414,586.008L0,586.002v-0.225c0-10.531,0.286-21.201,0.854-31.712l350.916,18.891
		c-0.235,4.259-0.355,8.572-0.355,12.821V586.008z M585.604,585.351l-0.037-0.008l-0.976-0.47h0.146L585.604,585.351z
		 M585.399,585.305l-0.065-0.015l-1.189-0.414l0.214-0.001L585.399,585.305z M586.931,585.066l0.142-0.293l0.085-0.784l0.185-0.644
		l-0.228,1.341l0.007-0.016l-0.001,0.005l0.027-0.061l-0.072,0.189l0.03-0.089l-0.039,0.105l0.001-0.012l-0.022,0.051h0.002
		l-0.044,0.107l-0.001-0.03L586.931,585.066z M584.689,584.846l-1.132-0.47L57.846,331.646c4.758-9.895,9.86-19.785,15.169-29.396
		l307.673,169.927c-2.027,3.685-3.979,7.469-5.809,11.258L581.891,583.3L584.689,584.846z M586.146,584.844l-0.378-0.472
		l-0.505-0.911l0.666,0.936L586.146,584.844z M584.04,584.839L32.597,392.786c3.617-10.386,7.579-20.804,11.776-30.964
		l324.881,134.199c-1.64,3.977-3.188,8.044-4.605,12.098L584.04,584.839z M586.523,584.773l-0.188-0.65l-0.201-1.775l0.334,1.467
		L586.523,584.773z M586.392,584.761l-0.04-0.107l0.005,0.036l-0.094-0.27l0.037,0.09l-0.055-0.164L586.392,584.761z
		 M586.288,584.547l-0.938-1.936l-40.763-98.198l41.637,99.913L586.288,584.547z M588.999,584.542l2.724-1.723l200.67-111.364
		c-2.118-3.815-4.372-7.622-6.7-11.314l297.038-187.865c5.843,9.24,11.499,18.764,16.808,28.305L590.907,583.619L588.999,584.542z
		 M585.206,584.511l-2.116-1.504L127.713,220.312c6.792-8.527,13.915-16.976,21.173-25.109l262.215,233.961
		c-2.793,3.134-5.533,6.382-8.151,9.659l181.069,144.629L585.206,584.511z M586.854,584.488l-0.02-0.362l0.021-0.128
		L586.854,584.488z M587.217,584.392l0.638-2.833l37.393-130.435L587.34,584.038L587.217,584.392z M588.698,584.352l1.779-1.426
		L778.35,449.19c-2.518-3.539-5.17-7.053-7.883-10.445l-50.957,40.74l325.101-260.62c6.817,8.505,13.483,17.313,19.813,26.182
		L591.02,582.888L588.698,584.352z M586.661,584.333l-0.002-0.003l0.048-0.857l0.024,0.22L586.661,584.333z M584.393,584.31
		l-2.511-1.391L89.724,273.903c5.811-9.254,11.962-18.466,18.283-27.382l286.687,203.28c-2.408,3.407-4.754,6.921-6.979,10.453
		l194.124,122.243L584.393,584.31z M587.985,584.278l1.647-2.321l362.286-455.433c8.523,6.779,16.967,13.889,25.096,21.133
		L743.235,410.035c-3.141-2.795-6.394-5.538-9.677-8.156L588.86,583.297L587.985,584.278z M586.17,584.138L391.914,32.277
		c10.374-3.652,20.985-7.053,31.545-10.11l97.758,337.638c-4.11,1.194-8.239,2.516-12.28,3.932l77.216,220.342L586.17,584.138z
		 M587.665,583.736l0.593-1.434L840.566,56.739c9.888,4.746,19.768,9.837,29.366,15.129L700.206,379.652
		c-3.688-2.027-7.475-3.977-11.262-5.802l-99.731,207.078L587.665,583.736z M585.175,583.631l-1.386-1.73L450.271,394.081
		c-3.533,2.512-7.044,5.158-10.434,7.863l46.067,57.701L220.112,127.678c8.51-6.813,17.322-13.474,26.194-19.797l337.273,473.22
		L585.175,583.631z M586.151,583.486l-0.502-1.74L455.461,13.873c10.663-2.444,21.54-4.617,32.331-6.46l59.155,346.457
		c-4.102,0.708-8.236,1.533-12.304,2.461l50.786,222.924L586.151,583.486z M585.478,583.46l-1.753-2.775L472.551,380.051
		c-3.816,2.116-7.625,4.367-11.321,6.693L273.546,89.593c9.232-5.831,18.751-11.476,28.292-16.778l282.61,508.514L585.478,583.46z
		 M588.27,583.354l1.594-2.882L898.305,88.568c9.247,5.798,18.451,11.935,27.358,18.241L722.586,393.642
		c-3.404-2.404-6.913-4.745-10.438-6.96l-122.121,194.19L588.27,583.354z M586.783,583.223l-0.032-0.57l0.104-1.898v1.82
		L586.783,583.223z M586.414,582.882l-0.664-3.92L520.416,2.783C531.219,1.558,542.203,0.621,553.062,0l20.076,350.852
		c-4.118,0.242-8.277,0.597-12.37,1.055l25.41,226.846L586.414,582.882z M587.847,582.585L779.369,31.509
		c10.381,3.608,20.794,7.562,30.953,11.748L676.352,368.232c-3.978-1.636-8.045-3.182-12.101-4.597L587.847,582.585z
		 M587.336,582.361l0.382-3.492l37.849-225.162c-4.308-0.726-8.69-1.337-13.027-1.819L650.745,2.524
		c10.881,1.19,21.865,2.705,32.649,4.503l-95.412,572.477L587.336,582.361z M586.99,581.355l-0.011-2.887l12.425-227.67
		c-4.166-0.228-8.387-0.345-12.549-0.347v192.224L584.961-0.959l1.778-0.002c10.426,0,20.986,0.28,31.39,0.835l-30.883,579.162
		L586.99,581.355z M361.762,534.816L14.402,456.398c2.421-10.72,5.179-21.509,8.199-32.069l337.953,96.668
		c-1.211,4.22-2.316,8.524-3.287,12.798L361.762,534.816z M764.423,499.71l350.292-169.964c4.779,9.85,9.34,19.966,13.557,30.065
		L803.891,495.214c-1.68-4.028-3.492-8.059-5.391-11.982L764.423,499.71z M501.262,409.017L331.055,57.635
		c9.843-4.769,19.953-9.319,30.049-13.526l135.21,324.461c-4.026,1.675-8.055,3.483-11.981,5.379L501.262,409.017z M651.365,359.548
		c-4.216-1.206-8.521-2.309-12.797-3.276l77.19-342.911c10.696,2.408,21.467,5.154,32.013,8.161L651.365,359.548z"/>
</g>
</svg>
