<?xml version="1.0" encoding="utf-8"?>
<!-- Generator: Adobe Illustrator 16.0.0, SVG Export Plug-In . SVG Version: 6.00 Build 0)  -->
<!DOCTYPE svg PUBLIC "-//W3C//DTD SVG 1.1//EN" "http://www.w3.org/Graphics/SVG/1.1/DTD/svg11.dtd">
<svg version="1.1" id="Layer_1" xmlns="http://www.w3.org/2000/svg" xmlns:xlink="http://www.w3.org/1999/xlink" x="0px" y="0px"
	 width="1280px" height="720px" viewBox="0 0 1280 720" enable-background="new 0 0 1280 720" xml:space="preserve">
<g>
	<g>
		<g>
			<defs>
				<rect id="SVGID_1_" width="1280" height="720"/>
			</defs>
			<clipPath id="SVGID_2_">
				<use xlink:href="#SVGID_1_"  overflow="visible"/>
			</clipPath>
			<path clip-path="url(#SVGID_2_)" fill="#B3AEA6" d="M1090.908,652.658c4.824,18.099,14.844,34.164,25.885,49.783
				c13.652,1.593,27.43,1.428,41.199,0.483c-12.008-19.384-21.409-38.503-41.687-54.095l-32.479-7.863
				c-0.871,0.444-1.743,1.127-2.615,1.127C1086.061,645.615,1089.293,650.313,1090.908,652.658z"/>
		</g>
		<g>
			<defs>
				<rect id="SVGID_3_" width="1280" height="720"/>
			</defs>
			<clipPath id="SVGID_4_">
				<use xlink:href="#SVGID_3_"  overflow="visible"/>
			</clipPath>
			<path clip-path="url(#SVGID_4_)" fill="#B3AEA6" d="M166.465,644.442c-6.465,3.521-9.697,7.043-12.93,11.738
				c-8.081,15.262-14.545,30.521-21.01,45.78c-1.678,3.047-5.103,5.141-9.134,6.946c12.436,0.271,24.872-0.266,37.308,0.842
				c1.129-8.829,2.225-17.525,8.999-25.396c10.75-13.387,18.558-28.89,15.151-43.492l-15.737-1.187
				C168.591,641.846,168.364,643.752,166.465,644.442z"/>
		</g>
		<g>
			<defs>
				<rect id="SVGID_5_" width="1280" height="720"/>
			</defs>
			<clipPath id="SVGID_6_">
				<use xlink:href="#SVGID_5_"  overflow="visible"/>
			</clipPath>
			<path clip-path="url(#SVGID_6_)" fill="#B3AEA6" d="M1296.287,671.486c4.017,3.38,10.023,6.426,16.037,8.172
				C1306.313,677.912,1300.304,674.866,1296.287,671.486l-71.155-8.161c3.256,4.568,9.667,3.439,16.081,5.768
				c11.313,2.351,22.625,7.043,25.857,16.437c-3.232-9.394-14.545-14.086-25.857-16.437c-6.414-2.327-12.825-1.198-16.081-5.768
				l-45.397-5.205c4.124,4.317,7.924,8.465,12.992,12.147c-5.068-3.684-8.868-7.83-12.992-12.147l-47.612-5.462l-15.813-3.827
				c20.275,15.592,29.678,34.711,41.686,54.095c18.715-1.283,37.411-3.995,55.746-5.66c-18.335,1.665-37.031,4.377-55.746,5.66
				c4.911,7.925,10.252,15.897,16.957,23.688c6.465,7.044,12.93,16.435,27.475,17.606c-14.545-1.173-21.01-10.563-27.475-17.606
				c-6.705-7.789-12.046-15.763-16.957-23.688c-13.77,0.943-27.547,1.108-41.199-0.483c11.158,15.79,23.361,31.126,32.299,47.647
				c-8.938-16.521-21.141-31.857-32.299-47.647c-7.053-0.819-14.07-2.104-21.035-4.002c6.965,1.896,13.982,3.183,21.035,4.002
				c-11.041-15.619-21.061-31.686-25.885-49.783c-1.615-2.347-4.848-7.043-9.695-10.563c0.872,0,1.744-0.683,2.615-1.127
				l-131.102-31.74L475.96,642.095H201.212l-16.364-1.232c3.407,14.604-4.4,30.105-15.151,43.491
				c-6.774,7.871-7.869,16.567-8.999,25.396c1.383,0.122,2.767,0.262,4.15,0.429c-1.383-0.167-2.767-0.307-4.15-0.429
				c-0.218,1.705-0.437,3.414-0.699,5.123c0.262-1.709,0.481-3.418,0.699-5.123c-12.436-1.106-24.872-0.569-37.308-0.842
				c-3.735,1.674-7.989,3.098-11.875,4.791c3.886-1.693,8.141-3.117,11.875-4.791c-5.574-0.121-11.15-0.403-16.724-1.079
				c5.574,0.676,11.15,0.958,16.724,1.079c4.032-1.808,7.457-3.899,9.134-6.946c6.465-15.26,12.929-30.52,21.01-45.78
				c3.232-4.695,6.465-8.217,12.93-11.738c1.899-0.69,2.126-2.598,2.646-4.768L29.899,629.183l-286.062,26.999l29.092,214.815
				h1653.332l74.345-176.078L1296.287,671.486z"/>
		</g>
		<g>
			<defs>
				<rect id="SVGID_7_" width="1280" height="720"/>
			</defs>
			<clipPath id="SVGID_8_">
				<use xlink:href="#SVGID_7_"  overflow="visible"/>
			</clipPath>
			
				<linearGradient id="SVGID_9_" gradientUnits="userSpaceOnUse" x1="805.1875" y1="557.29" x2="805.1875" y2="-55.712" gradientTransform="matrix(1 0 0 -1 -165 543)">
				<stop  offset="0" style="stop-color:#6E8096"/>
				<stop  offset="1" style="stop-color:#000000"/>
			</linearGradient>
			<rect x="0.188" y="-0.203" clip-path="url(#SVGID_8_)" fill="url(#SVGID_9_)" width="1280" height="550.535"/>
		</g>
		<g>
			<defs>
				<rect id="SVGID_10_" width="1280" height="720"/>
			</defs>
			<clipPath id="SVGID_11_">
				<use xlink:href="#SVGID_10_"  overflow="visible"/>
			</clipPath>
			<path clip-path="url(#SVGID_11_)" fill="#B3AEA6" d="M1157.219,608.409c1.461,1.11,3.047,2.175,4.801,3.166
				c21.578,12.537,41.869,22.301,59.747,37.536c2.661-2.723,5.806-4.906,4.899-8.189
				C1219.149,619.082,1186.461,610.452,1157.219,608.409z"/>
		</g>
		<g>
			<defs>
				<rect id="SVGID_12_" width="1280" height="720"/>
			</defs>
			<clipPath id="SVGID_13_">
				<use xlink:href="#SVGID_12_"  overflow="visible"/>
			</clipPath>
			<path clip-path="url(#SVGID_13_)" fill="#B3AEA6" d="M1294.697,622.271c-9.519-6.676-21.88-12.987-35.707-11.87
				c0.531,0.385,0.185,0.644-0.399,0.901c8.417,8.073,16.526,16.487,26.363,23.879C1290.04,631.717,1295,627.827,1294.697,622.271z"
				/>
		</g>
		<g>
			<defs>
				<rect id="SVGID_14_" width="1280" height="720"/>
			</defs>
			<clipPath id="SVGID_15_">
				<use xlink:href="#SVGID_14_"  overflow="visible"/>
			</clipPath>
			<path clip-path="url(#SVGID_15_)" fill="#B3AEA6" d="M1157.996,702.926c-13.771,0.943-27.55,1.108-41.204-0.483
				c8.29,11.732,17.157,23.214,24.832,35.118h43.965c-4.207-3.365-7.424-7.444-10.64-10.947
				C1168.244,718.823,1162.904,710.851,1157.996,702.926z"/>
		</g>
		<g>
			<defs>
				<rect id="SVGID_16_" width="1280" height="720"/>
			</defs>
			<clipPath id="SVGID_17_">
				<use xlink:href="#SVGID_16_"  overflow="visible"/>
			</clipPath>
			<path clip-path="url(#SVGID_17_)" fill="#B3AEA6" d="M1338.182,493.348l-196.362-17.556l-476.769,32.867H390.303L218.99,495.746
				l-286.061,27L-37.98,737.56h1179.604c-7.675-11.904-16.542-23.386-24.832-35.118c-7.052-0.822-14.07-2.104-21.034-4.003
				c6.964,1.897,13.982,3.181,21.034,4.003c-11.04-15.62-21.062-31.686-25.884-49.783c-1.615-2.347-4.849-7.043-9.695-10.563
				c1.615,0,3.232-2.347,4.848-1.173l-1.614-1.174l1.614,1.174c-1.614-1.174-3.231,1.173-4.848,1.173
				c4.848,3.521,8.08,8.218,9.695,10.563c4.822,18.099,14.844,34.163,25.884,49.783c13.654,1.593,27.435,1.428,41.204,0.483
				c-12.839-20.738-22.692-41.173-46.076-57.311c23.384,16.138,33.237,36.571,46.076,57.311c18.714-1.284,37.408-3.995,55.742-5.66
				c-18.334,1.665-37.028,4.376-55.742,5.66c4.908,7.925,10.248,15.897,16.953,23.688c3.216,3.503,6.433,7.582,10.64,10.947h429.765
				l74.345-176.077L1338.182,493.348z M169.697,684.354c-6.774,7.871-7.869,16.567-8.999,25.396c1.383,0.122,2.767,0.262,4.15,0.429
				c-1.383-0.167-2.767-0.307-4.15-0.429c-0.218,1.705-0.437,3.414-0.699,5.123c0.262-1.709,0.481-3.418,0.699-5.123
				c-12.436-1.106-24.872-0.569-37.308-0.842c-3.735,1.674-7.989,3.098-11.875,4.791c3.886-1.693,8.141-3.117,11.875-4.791
				c-5.574-0.121-11.15-0.403-16.724-1.079c5.574,0.676,11.15,0.958,16.724,1.079c4.032-1.808,7.457-3.899,9.134-6.946
				c6.465-15.26,12.929-30.52,21.01-45.78c3.232-4.695,6.465-8.217,12.93-11.738c3.232-1.174,1.616-5.87,4.849-9.392
				c-3.232,3.521-1.616,8.218-4.849,9.392c-6.465,3.521-9.697,7.043-12.93,11.738c-8.081,15.262-14.545,30.521-21.01,45.78
				c-1.678,3.047-5.103,5.14-9.134,6.946c12.436,0.271,24.872-0.266,37.308,0.842C161.828,700.921,162.923,692.225,169.697,684.354
				c11.313-14.085,19.394-30.521,14.545-45.78C189.091,653.833,181.01,670.269,169.697,684.354z M1171.717,650.313
				c-12.93-14.087-27.475-24.649-37.172-38.736c-6.465-9.392-11.313-22.305-24.242-29.348c12.931,7.044,17.777,19.956,24.242,29.348
				C1144.242,625.662,1158.787,636.226,1171.717,650.313c8.082,7.044,12.931,14.087,21.01,19.956
				C1184.646,664.398,1179.799,657.355,1171.717,650.313z M1241.213,669.093c-6.465-2.347-12.93-1.174-16.162-5.868
				c-1.617-2.349,6.465-4.695,3.232-8.219c-2.132-2.063-4.309-4.014-6.518-5.895c-2.095,2.145-3.893,4.625-3.181,8.244
				c-0.712-3.619,1.086-6.101,3.181-8.244c-17.878-15.235-38.168-24.999-59.746-37.536c-1.754-0.991-3.34-2.056-4.802-3.166
				c-2.192-0.154-4.37-0.273-6.512-0.356c2.142,0.083,4.318,0.202,6.512,0.356c-10.656-8.102-14.538-18.955-25.905-26.181
				c11.367,7.226,15.249,18.079,25.905,26.181c29.242,2.043,61.932,10.673,69.447,32.513c0.905,3.283-2.238,5.468-4.899,8.189
				c2.209,1.881,4.386,3.831,6.518,5.895c3.232,3.522-4.85,5.87-3.232,8.219C1228.283,667.919,1234.748,666.746,1241.213,669.093
				c11.313,2.351,22.625,7.043,25.857,16.437C1263.838,676.136,1252.525,671.442,1241.213,669.093z M1292.93,667.919
				c-3.231-7.043-11.313-10.563-16.162-15.261c-24.241-23.477-53.334-42.257-69.493-68.08c16.159,25.823,45.252,44.604,69.493,68.08
				C1281.617,657.355,1289.697,660.876,1292.93,667.919c3.232,4.696,11.313,9.391,19.396,11.739
				C1304.242,677.31,1296.162,672.615,1292.93,667.919z M1289.697,638.572c-1.633-1.101-3.205-2.233-4.743-3.391
				c-1.705,1.161-3.419,2.276-4.954,3.391c1.535-1.113,3.249-2.229,4.954-3.391c-9.837-7.392-17.946-15.806-26.363-23.879
				c-1.192,0.523-3.387,1.043-1.218,2.618c-2.169-1.575,0.025-2.095,1.218-2.618c-8.524-8.178-17.372-16.004-28.692-22.031
				c11.32,6.027,20.168,13.854,28.692,22.031c0.584-0.259,0.933-0.518,0.399-0.901c13.827-1.117,26.188,5.194,35.707,11.87
				c-0.024-0.426-0.064-0.859-0.152-1.308c0.088,0.447,0.128,0.882,0.152,1.308c0.493,0.347,0.984,0.694,1.465,1.041
				c-0.479-0.347-0.973-0.694-1.465-1.041c0.303,5.556-4.657,9.444-9.743,12.91C1286.492,636.339,1288.064,637.473,1289.697,638.572
				c4.848,4.697,14.545,7.043,24.242,8.22C1304.242,645.615,1294.545,643.27,1289.697,638.572z"/>
		</g>
		<g>
			<defs>
				<rect id="SVGID_18_" width="1280" height="720"/>
			</defs>
			<clipPath id="SVGID_19_">
				<use xlink:href="#SVGID_18_"  overflow="visible"/>
			</clipPath>
			<path clip-path="url(#SVGID_19_)" fill="#FFF3DD" d="M1157.219,608.409c1.461,1.11,3.047,2.175,4.801,3.166
				c21.578,12.537,41.869,22.301,59.747,37.536c2.661-2.723,5.806-4.906,4.899-8.189
				C1219.149,619.082,1186.461,610.452,1157.219,608.409z"/>
		</g>
		<g>
			<defs>
				<rect id="SVGID_20_" width="1280" height="720"/>
			</defs>
			<clipPath id="SVGID_21_">
				<use xlink:href="#SVGID_20_"  overflow="visible"/>
			</clipPath>
			<path clip-path="url(#SVGID_21_)" fill="#FFF3DD" d="M1294.697,622.271c-9.519-6.676-21.88-12.987-35.707-11.87
				c0.531,0.385,0.185,0.644-0.399,0.901c8.417,8.073,16.526,16.487,26.363,23.879C1290.04,631.717,1295,627.827,1294.697,622.271z"
				/>
		</g>
		<g>
			<defs>
				<rect id="SVGID_22_" width="1280" height="720"/>
			</defs>
			<clipPath id="SVGID_23_">
				<use xlink:href="#SVGID_22_"  overflow="visible"/>
			</clipPath>
			<path clip-path="url(#SVGID_23_)" fill="#FFF3DD" d="M1101.414,509.45l-811.313,11.737l-546.263,11.35l-4.848,218.726h1802.02
				V496.537L1101.414,509.45z M169.697,684.354c-6.774,7.871-7.869,16.567-8.999,25.396c1.383,0.122,2.767,0.262,4.15,0.429
				c-1.383-0.167-2.767-0.307-4.15-0.429c-0.218,1.705-0.437,3.414-0.699,5.123c0.262-1.709,0.481-3.418,0.699-5.123
				c-12.436-1.106-24.872-0.569-37.308-0.842c-3.735,1.674-7.989,3.098-11.875,4.791c3.886-1.693,8.141-3.117,11.875-4.791
				c-5.574-0.121-11.15-0.403-16.724-1.079c5.574,0.676,11.15,0.958,16.724,1.079c4.032-1.808,7.457-3.899,9.134-6.946
				c6.465-15.26,12.929-30.52,21.01-45.78c3.232-4.695,6.465-8.217,12.93-11.738c3.232-1.174,1.616-5.87,4.849-9.392
				c-3.232,3.521-1.616,8.218-4.849,9.392c-6.465,3.521-9.697,7.043-12.93,11.738c-8.081,15.262-14.545,30.521-21.01,45.78
				c-1.678,3.047-5.103,5.14-9.134,6.946c12.436,0.271,24.872-0.266,37.308,0.842C161.828,700.921,162.923,692.225,169.697,684.354
				c11.313-14.085,19.394-30.521,14.545-45.78C189.091,653.833,181.01,670.269,169.697,684.354z M1134.545,611.575
				c9.697,14.087,24.242,24.649,37.172,38.737c8.082,7.043,12.931,14.086,21.01,19.955c-8.079-5.869-12.928-12.912-21.01-19.955
				C1158.787,636.226,1144.242,625.662,1134.545,611.575c-6.465-9.392-11.313-22.304-24.242-29.347
				C1123.232,589.271,1128.08,602.185,1134.545,611.575z M1174.949,726.612c6.465,7.044,12.93,16.435,27.475,17.606
				C1187.879,743.047,1181.414,733.656,1174.949,726.612c-6.705-7.789-12.045-15.763-16.953-23.688
				c-13.771,0.942-27.55,1.108-41.203-0.483c11.158,15.789,23.361,31.126,32.299,47.647c-8.938-16.521-21.141-31.857-32.299-47.647
				c-7.053-0.819-14.071-2.104-21.035-4.002c6.964,1.896,13.982,3.183,21.035,4.002c-11.041-15.619-21.061-31.686-25.885-49.783
				c-1.615-2.347-4.849-7.043-9.695-10.563c1.615,0,3.232-2.347,4.848-1.173l-1.614-1.174l1.614,1.174
				c-1.614-1.174-3.231,1.173-4.848,1.173c4.848,3.521,8.08,8.218,9.695,10.563c4.824,18.099,14.844,34.164,25.885,49.783
				c13.653,1.593,27.434,1.427,41.203,0.483c-12.839-20.737-22.692-41.173-46.076-57.311c23.384,16.138,33.237,36.571,46.076,57.311
				c18.714-1.284,37.408-3.995,55.742-5.66c-18.334,1.665-37.028,4.376-55.742,5.66
				C1162.904,710.851,1168.244,718.823,1174.949,726.612z M1241.213,669.093c-6.465-2.347-12.93-1.174-16.162-5.868
				c-1.617-2.349,6.465-4.695,3.232-8.219c-2.132-2.063-4.309-4.014-6.518-5.895c-2.095,2.145-3.893,4.625-3.181,8.244
				c-0.712-3.619,1.086-6.101,3.181-8.244c-17.878-15.235-38.168-24.999-59.746-37.536c-1.754-0.991-3.34-2.056-4.802-3.166
				c-2.192-0.154-4.37-0.273-6.512-0.356c2.142,0.083,4.318,0.202,6.512,0.356c-10.656-8.102-14.538-18.955-25.905-26.181
				c11.367,7.226,15.249,18.079,25.905,26.181c29.242,2.043,61.932,10.673,69.447,32.513c0.905,3.283-2.238,5.468-4.899,8.189
				c2.209,1.881,4.386,3.831,6.518,5.895c3.232,3.522-4.85,5.87-3.232,8.219C1228.283,667.919,1234.748,666.746,1241.213,669.093
				c11.313,2.351,22.625,7.043,25.857,16.437C1263.838,676.136,1252.525,671.442,1241.213,669.093z M1292.93,667.919
				c-3.231-7.043-11.313-10.563-16.162-15.261c-24.241-23.477-53.334-42.257-69.493-68.08c16.159,25.823,45.252,44.604,69.493,68.08
				C1281.617,657.355,1289.697,660.876,1292.93,667.919c3.232,4.696,11.313,9.391,19.396,11.739
				C1304.242,677.31,1296.162,672.615,1292.93,667.919z M1289.697,638.572c-1.633-1.101-3.205-2.233-4.743-3.391
				c-1.705,1.161-3.419,2.276-4.954,3.391c1.535-1.113,3.249-2.229,4.954-3.391c-9.837-7.392-17.946-15.806-26.363-23.879
				c-1.192,0.523-3.387,1.043-1.218,2.618c-2.169-1.575,0.025-2.095,1.218-2.618c-8.524-8.178-17.372-16.004-28.692-22.031
				c11.32,6.027,20.168,13.854,28.692,22.031c0.584-0.259,0.933-0.518,0.399-0.901c13.827-1.117,26.188,5.194,35.707,11.87
				c-0.024-0.426-0.064-0.859-0.152-1.308c0.088,0.447,0.128,0.882,0.152,1.308c0.493,0.347,0.984,0.694,1.465,1.041
				c-0.479-0.347-0.973-0.694-1.465-1.041c0.303,5.556-4.657,9.444-9.743,12.91C1286.492,636.339,1288.064,637.473,1289.697,638.572
				c4.848,4.697,14.545,7.043,24.242,8.22C1304.242,645.615,1294.545,643.27,1289.697,638.572z"/>
		</g>
		<g>
			<defs>
				<rect id="SVGID_24_" width="1280" height="720"/>
			</defs>
			<clipPath id="SVGID_25_">
				<use xlink:href="#SVGID_24_"  overflow="visible"/>
			</clipPath>
			<path clip-path="url(#SVGID_25_)" fill="#C6B6A5" d="M1157.219,608.409c1.461,1.11,3.047,2.175,4.801,3.166
				c21.578,12.537,41.869,22.301,59.747,37.536c2.661-2.723,5.806-4.906,4.899-8.189
				C1219.149,619.082,1186.461,610.452,1157.219,608.409z"/>
		</g>
		<g>
			<defs>
				<rect id="SVGID_26_" width="1280" height="720"/>
			</defs>
			<clipPath id="SVGID_27_">
				<use xlink:href="#SVGID_26_"  overflow="visible"/>
			</clipPath>
			<path clip-path="url(#SVGID_27_)" fill="#C6B6A5" d="M1229.092,545.84l-421.817-24.651L430.707,555.23L44.444,545.84
				l-292.525-9.392l29.091,214.813h1653.334l74.344-230.075L1229.092,545.84z M169.697,684.354
				c-6.774,7.871-7.869,16.567-8.999,25.396c1.383,0.122,2.767,0.262,4.15,0.429c-1.383-0.167-2.767-0.307-4.15-0.429
				c-0.218,1.705-0.437,3.414-0.699,5.123c0.262-1.709,0.481-3.418,0.699-5.123c-12.436-1.106-24.872-0.569-37.308-0.842
				c-3.735,1.674-7.989,3.098-11.875,4.791c3.886-1.693,8.141-3.117,11.875-4.791c-5.574-0.121-11.15-0.403-16.724-1.079
				c5.574,0.676,11.15,0.958,16.724,1.079c4.032-1.808,7.457-3.899,9.134-6.946c6.465-15.26,12.929-30.52,21.01-45.78
				c3.232-4.695,6.465-8.217,12.93-11.738c3.232-1.174,1.616-5.87,4.849-9.392c-3.232,3.521-1.616,8.218-4.849,9.392
				c-6.465,3.521-9.697,7.043-12.93,11.738c-8.081,15.262-14.545,30.521-21.01,45.78c-1.678,3.047-5.103,5.14-9.134,6.946
				c12.436,0.271,24.872-0.266,37.308,0.842C161.828,700.921,162.923,692.225,169.697,684.354
				c11.313-14.085,19.394-30.521,14.545-45.78C189.091,653.833,181.01,670.269,169.697,684.354z M1134.545,611.575
				c9.697,14.087,24.242,24.649,37.172,38.737c8.082,7.043,12.931,14.086,21.01,19.955c-8.079-5.869-12.928-12.912-21.01-19.955
				C1158.787,636.226,1144.242,625.662,1134.545,611.575c-6.465-9.392-11.313-22.304-24.242-29.347
				C1123.232,589.271,1128.08,602.185,1134.545,611.575z M1174.949,726.612c6.465,7.044,12.93,16.435,27.475,17.606
				C1187.879,743.047,1181.414,733.656,1174.949,726.612c-6.705-7.789-12.045-15.763-16.953-23.688
				c-13.771,0.942-27.55,1.108-41.203-0.483c11.158,15.789,23.361,31.126,32.299,47.647c-8.938-16.521-21.141-31.857-32.299-47.647
				c-7.053-0.819-14.071-2.104-21.035-4.002c6.964,1.896,13.982,3.183,21.035,4.002c-11.041-15.619-21.061-31.686-25.885-49.783
				c-1.615-2.347-4.849-7.043-9.695-10.563c1.615,0,3.232-2.347,4.848-1.173l-1.614-1.174l1.614,1.174
				c-1.614-1.174-3.231,1.173-4.848,1.173c4.848,3.521,8.08,8.218,9.695,10.563c4.824,18.099,14.844,34.164,25.885,49.783
				c13.653,1.593,27.434,1.427,41.203,0.483c-12.839-20.737-22.692-41.173-46.076-57.311c23.384,16.138,33.237,36.571,46.076,57.311
				c18.714-1.284,37.408-3.995,55.742-5.66c-18.334,1.665-37.028,4.376-55.742,5.66
				C1162.904,710.851,1168.244,718.823,1174.949,726.612z M1241.213,669.093c-6.465-2.347-12.93-1.174-16.162-5.868
				c-1.617-2.349,6.465-4.695,3.232-8.219c-2.132-2.063-4.309-4.014-6.518-5.895c-2.095,2.145-3.893,4.625-3.181,8.244
				c-0.712-3.619,1.086-6.101,3.181-8.244c-17.878-15.235-38.168-24.999-59.746-37.536c-1.754-0.991-3.34-2.056-4.802-3.166
				c-2.192-0.154-4.37-0.273-6.512-0.356c2.142,0.083,4.318,0.202,6.512,0.356c-10.656-8.102-14.538-18.955-25.905-26.181
				c11.367,7.226,15.249,18.079,25.905,26.181c29.242,2.043,61.932,10.673,69.447,32.513c0.905,3.283-2.238,5.468-4.899,8.189
				c2.209,1.881,4.386,3.831,6.518,5.895c3.232,3.522-4.85,5.87-3.232,8.219C1228.283,667.919,1234.748,666.746,1241.213,669.093
				c11.313,2.351,22.625,7.043,25.857,16.437C1263.838,676.136,1252.525,671.442,1241.213,669.093z M1292.93,667.919
				c-3.231-7.043-11.313-10.563-16.162-15.261c-24.241-23.477-53.334-42.257-69.493-68.08c16.159,25.823,45.252,44.604,69.493,68.08
				C1281.617,657.355,1289.697,660.876,1292.93,667.919c3.232,4.696,11.313,9.391,19.396,11.739
				C1304.242,677.31,1296.162,672.615,1292.93,667.919z M1289.697,638.572c-1.633-1.101-3.205-2.233-4.743-3.391
				c-1.705,1.161-3.419,2.276-4.954,3.391c1.535-1.113,3.249-2.229,4.954-3.391c-9.837-7.392-17.946-15.806-26.363-23.879
				c-1.192,0.523-3.387,1.043-1.218,2.618c-2.169-1.575,0.025-2.095,1.218-2.618c-8.524-8.178-17.372-16.004-28.692-22.031
				c11.32,6.027,20.168,13.854,28.692,22.031c0.584-0.259,0.933-0.518,0.399-0.901c13.827-1.117,26.188,5.194,35.707,11.87
				c-0.024-0.426-0.064-0.859-0.152-1.308c0.088,0.447,0.128,0.882,0.152,1.308c0.493,0.347,0.984,0.694,1.465,1.041
				c-0.479-0.347-0.973-0.694-1.465-1.041c0.303,5.556-4.657,9.444-9.743,12.91C1286.492,636.339,1288.064,637.473,1289.697,638.572
				c4.848,4.697,14.545,7.043,24.242,8.22C1304.242,645.615,1294.545,643.27,1289.697,638.572z"/>
		</g>
		<g>
			<defs>
				<rect id="SVGID_28_" width="1280" height="720"/>
			</defs>
			<clipPath id="SVGID_29_">
				<use xlink:href="#SVGID_28_"  overflow="visible"/>
			</clipPath>
			<path clip-path="url(#SVGID_29_)" fill="#C6B6A5" d="M1294.697,622.271c-9.519-6.676-21.88-12.987-35.707-11.87
				c0.531,0.385,0.185,0.644-0.399,0.901c8.417,8.073,16.526,16.487,26.363,23.879C1290.04,631.717,1295,627.827,1294.697,622.271z"
				/>
		</g>
		<g>
			<defs>
				<rect id="SVGID_30_" width="1280" height="720"/>
			</defs>
			<clipPath id="SVGID_31_">
				<use xlink:href="#SVGID_30_"  overflow="visible"/>
			</clipPath>
			<g clip-path="url(#SVGID_31_)">
				<path fill="#4C612C" d="M1207.876,606.677h13.291c-4.979-6.271-9.475-12.825-13.229-19.878
					C1207.904,598.953,1207.876,606.677,1207.876,606.677z"/>
				<path fill="#4C612C" d="M1216.996,440.566c-3.801,0-9.16,3.905-9.12,7.353c0.325,29.382,0.164,103.229,0.063,138.88
					c3.754,7.053,8.25,13.605,13.229,19.878h4.95c0,0,0-6.333,0-16.518c-0.421-0.292-0.82-0.604-1.25-0.888
					c0.43,0.284,0.829,0.596,1.25,0.888c0-34.882,0-115.104,0-142.24C1226.117,444.473,1220.795,440.566,1216.996,440.566z"/>
				<path fill="#4C612C" d="M1248.999,437.021c0-3.445-5.32-7.355-9.119-7.355c-3.8,0-9.156,3.91-9.12,7.355
					c0.102,9.312,0.156,53.813,0.182,68.019c0.021,15.403,0.323,24.497-1.496,29.283c-2.234,5.864-4.328,4.596-4.328,4.596v21.009
					c0,0,23.883,10.299,23.883-34.928C1248.999,511.476,1248.999,445.092,1248.999,437.021z"/>
				<path fill="#4C612C" d="M1202.811,447.919c0-3.446-5.319-7.353-9.118-7.353c-3.803,0-9.158,3.905-9.121,7.353
					c0.102,9.025,0.151,21.378,0.177,35.063c0.082,46.044,24.746,46.745,24.746,46.745l-0.17-23.109c0,0-1.777,4.146-3.402-0.984
					c-1.633-5.162-3.109-19.669-3.109-42.349C1202.811,449.761,1202.811,455.989,1202.811,447.919z"/>
			</g>
		</g>
		<g>
			<defs>
				<rect id="SVGID_32_" width="1280" height="720"/>
			</defs>
			<clipPath id="SVGID_33_">
				<use xlink:href="#SVGID_32_"  overflow="visible"/>
			</clipPath>
			<g clip-path="url(#SVGID_33_)">
				<path fill="#778243" d="M1116.131,586.514c0,5.611,0,9.011,0,9.011h7.743C1121.724,592.243,1119.229,589.145,1116.131,586.514z"
					/>
				<path fill="#778243" d="M1132.306,584.881c-0.479-0.39-0.961-0.78-1.476-1.152
					C1131.345,584.101,1131.826,584.491,1132.306,584.881c-0.089-22.502-0.253-74.515,0.046-94.751
					c0.035-2.289-4.73-4.883-8.108-4.883c-3.38,0-8.111,2.594-8.111,4.883c0,18.541,0,74.418,0,96.384
					c3.099,2.631,5.593,5.729,7.743,9.011h8.479C1132.352,595.523,1132.333,591.46,1132.306,584.881z"/>
				<path fill="#778243" d="M1136.858,490.13c0-2.289,4.73-4.883,8.109-4.883c3.381,0,8.146,2.594,8.11,4.883
					c-0.089,5.99-0.136,14.191-0.157,23.275c-0.073,30.566-22.008,31.034-22.008,31.034l0.151-15.346c0,0,1.578,2.754,3.023-0.652
					c1.453-3.427,2.77-13.058,2.77-28.112C1136.858,491.349,1136.858,495.486,1136.858,490.13z"/>
			</g>
		</g>
		<g>
			<defs>
				<rect id="SVGID_34_" width="1280" height="720"/>
			</defs>
			<clipPath id="SVGID_35_">
				<use xlink:href="#SVGID_34_"  overflow="visible"/>
			</clipPath>
			<path clip-path="url(#SVGID_35_)" fill="#5B8F80" d="M1294.697,622.271c-9.519-6.676-21.88-12.987-35.707-11.87
				c0.537,0.39,0.176,0.649-0.419,0.909c8.427,8.068,16.542,16.482,26.383,23.871C1290.037,631.717,1295,627.827,1294.697,622.271z"
				/>
		</g>
		<g>
			<defs>
				<rect id="SVGID_36_" width="1280" height="720"/>
			</defs>
			<clipPath id="SVGID_37_">
				<use xlink:href="#SVGID_36_"  overflow="visible"/>
			</clipPath>
			<path clip-path="url(#SVGID_37_)" fill="#778185" d="M1171.717,650.313c2.083,1.813,3.944,3.625,5.707,5.421
				c15.461,4.699,32.162,8.086,48.863,8.879c-0.448-0.396-0.867-0.851-1.236-1.388c-1.616-2.349,6.465-4.695,3.232-8.219
				c-2.132-2.063-4.309-4.014-6.517-5.895c-2.096,2.145-3.894,4.625-3.182,8.244c-0.712-3.619,1.086-6.101,3.182-8.244
				c-17.878-15.235-38.169-24.999-59.747-37.536c-1.754-0.991-3.335-2.056-4.797-3.166c-2.193-0.154-4.373-0.272-6.517-0.356
				c2.144,0.084,4.322,0.202,6.517,0.356c-9.411-7.148-13.557-16.433-22.211-23.484l-19.908,0.455
				c9.455,7.315,13.848,18.069,19.44,26.195C1144.242,625.662,1158.787,636.226,1171.717,650.313z"/>
		</g>
		<g>
			<defs>
				<rect id="SVGID_38_" width="1280" height="720"/>
			</defs>
			<clipPath id="SVGID_39_">
				<use xlink:href="#SVGID_38_"  overflow="visible"/>
			</clipPath>
			<path clip-path="url(#SVGID_39_)" fill="#C1C9C9" d="M1232.086,590.518c10.271,5.843,18.521,13.164,26.485,20.795
				c0.595-0.261,0.956-0.521,0.419-0.91c13.827-1.117,26.188,5.194,35.707,11.87c-0.024-0.426-0.064-0.859-0.152-1.308
				c0.088,0.447,0.128,0.882,0.152,1.308c0.493,0.347,0.984,0.694,1.465,1.041c-0.479-0.347-0.973-0.694-1.465-1.041
				c0.303,5.556-4.66,9.444-9.743,12.91c1.538,1.156,3.11,2.29,4.743,3.391c4.805,4.653,14.369,6.999,23.976,8.185
				c6.111-8.715,11.435-18.144,19.661-24.617c-8.229,6.475-13.55,15.902-19.661,24.617c0.088,0.013,0.179,0.024,0.267,0.035
				c-0.088-0.011-0.179-0.023-0.267-0.035c-5.618,8.008-11.905,15.413-21.735,19.358c0.359,0.577,0.701,1.173,0.992,1.804
				c3.232,4.696,11.313,9.391,19.396,11.739c-8.082-2.349-16.162-7.043-19.396-11.739c-0.291-0.631-0.633-1.227-0.992-1.804
				c-4.688,1.88-10.179,2.978-16.784,2.978c6.605,0,12.097-1.098,16.784-2.978c-3.678-5.871-10.758-9.181-15.17-13.457
				c-24.187-23.422-53.195-42.176-69.379-67.907l-5.772-1.35l-66.604,1.522c8.655,7.054,12.801,16.336,22.211,23.484
				c29.242,2.044,61.928,10.675,69.443,32.513c0.905,3.283-2.238,5.469-4.898,8.189c2.207,1.881,4.385,3.831,6.517,5.895
				c3.231,3.522-4.851,5.87-3.232,8.22c0.369,0.536,0.788,0.989,1.236,1.387c6.074,0.288,12.146,0.246,18.158-0.213
				c-6.013,0.459-12.084,0.501-18.158,0.213c3.48,3.079,9.2,2.403,14.926,4.48c11.313,2.351,22.625,7.044,25.857,16.437
				c-3.232-9.394-14.545-14.086-25.857-16.437c-5.726-2.077-11.444-1.401-14.926-4.48c-16.701-0.793-33.402-4.179-48.863-8.879
				c5.082,5.171,9.304,10.178,15.303,14.536c-5.999-4.358-10.221-9.365-15.303-14.536c-7.641-2.322-14.989-4.956-21.869-7.769
				c6.88,2.813,14.229,5.445,21.869,7.769c-1.763-1.795-3.624-3.607-5.707-5.42c-12.93-14.087-27.475-24.65-37.172-38.737
				c-5.594-8.126-9.986-18.88-19.441-26.195l-375.71,8.589L185.052,576.36L47.677,591.619l-286.061,27l29.091,214.813h1653.334
				l74.342-176.077L1232.086,590.518z M169.697,684.354c-6.774,7.871-7.869,16.567-8.999,25.396c1.383,0.122,2.767,0.262,4.15,0.429
				c-1.383-0.167-2.767-0.307-4.15-0.429c-0.218,1.705-0.437,3.414-0.699,5.123c0.262-1.709,0.481-3.418,0.699-5.123
				c-12.436-1.106-24.872-0.569-37.308-0.842c-3.735,1.674-7.989,3.098-11.875,4.791c3.886-1.693,8.141-3.117,11.875-4.791
				c-5.574-0.121-11.15-0.403-16.724-1.079c5.574,0.676,11.15,0.958,16.724,1.079c4.032-1.808,7.457-3.899,9.134-6.946
				c6.465-15.26,12.929-30.52,21.01-45.78c3.232-4.695,6.465-8.217,12.93-11.738c3.232-1.174,1.616-5.87,4.849-9.392
				c-3.232,3.521-1.616,8.218-4.849,9.392c-6.465,3.521-9.697,7.043-12.93,11.738c-8.081,15.262-14.545,30.521-21.01,45.78
				c-1.678,3.047-5.103,5.14-9.134,6.946c12.436,0.271,24.872-0.266,37.308,0.842C161.828,700.921,162.923,692.225,169.697,684.354
				c11.313-14.085,19.394-30.521,14.545-45.78C189.091,653.833,181.01,670.269,169.697,684.354z M1174.949,726.612
				c6.465,7.044,12.93,16.435,27.475,17.606C1187.879,743.047,1181.414,733.656,1174.949,726.612
				c-6.705-7.789-12.045-15.763-16.953-23.688c-13.771,0.942-27.55,1.108-41.203-0.483c11.158,15.789,23.361,31.126,32.299,47.647
				c-8.938-16.521-21.141-31.857-32.299-47.647c-7.053-0.819-14.071-2.104-21.035-4.002c6.964,1.896,13.982,3.183,21.035,4.002
				c-11.041-15.619-21.061-31.686-25.885-49.783c-1.615-2.347-4.849-7.043-9.695-10.563c1.615,0,3.232-2.347,4.848-1.173
				l-1.614-1.174l1.614,1.174c-1.614-1.174-3.231,1.173-4.848,1.173c4.848,3.521,8.08,8.218,9.695,10.563
				c4.824,18.099,14.844,34.164,25.885,49.783c13.653,1.593,27.434,1.427,41.203,0.483c-12.839-20.737-22.692-41.173-46.076-57.311
				c23.384,16.138,33.237,36.571,46.076,57.311c18.714-1.284,37.408-3.995,55.742-5.66c-18.334,1.665-37.028,4.376-55.742,5.66
				C1162.904,710.851,1168.244,718.823,1174.949,726.612z"/>
		</g>
		<g>
			<defs>
				<rect id="SVGID_40_" width="1280" height="720"/>
			</defs>
			<clipPath id="SVGID_41_">
				<use xlink:href="#SVGID_40_"  overflow="visible"/>
			</clipPath>
			<path clip-path="url(#SVGID_41_)" fill="#5B8F80" d="M1291.938,666.115c9.83-3.945,16.117-11.352,21.735-19.358
				c-9.605-1.186-19.171-3.53-23.976-8.185c-1.633-1.101-3.205-2.233-4.743-3.391c-1.705,1.161-3.419,2.276-4.954,3.391
				c1.535-1.113,3.249-2.229,4.954-3.391c-9.841-7.389-17.956-15.803-26.383-23.871c-1.194,0.522-3.356,1.045-1.198,2.61
				c-2.158-1.565,0.004-2.088,1.198-2.61c-7.966-7.63-16.214-14.951-26.485-20.794l-24.697-5.767
				c16.184,25.731,45.192,44.485,69.379,67.907C1281.18,656.935,1288.26,660.244,1291.938,666.115z"/>
		</g>
		<g>
			<defs>
				<rect id="SVGID_42_" width="1280" height="720"/>
			</defs>
			<clipPath id="SVGID_43_">
				<use xlink:href="#SVGID_42_"  overflow="visible"/>
			</clipPath>
			<path clip-path="url(#SVGID_43_)" fill="#B3AEA6" d="M1296.287,671.486c4.017,3.38,10.023,6.426,16.037,8.172
				C1306.313,677.912,1300.304,674.866,1296.287,671.486l-71.155-8.161c3.256,4.568,9.667,3.439,16.081,5.768
				c11.313,2.351,22.625,7.043,25.857,16.437c-3.232-9.394-14.545-14.086-25.857-16.437c-6.414-2.327-12.825-1.198-16.081-5.768
				l-45.397-5.205c4.124,4.317,7.924,8.465,12.992,12.147c-5.068-3.684-8.868-7.83-12.992-12.147l-47.612-5.462l-15.813-3.827
				c20.275,15.592,29.678,34.711,41.686,54.095c18.715-1.283,37.411-3.995,55.746-5.66c-18.335,1.665-37.031,4.377-55.746,5.66
				c4.911,7.925,10.252,15.897,16.957,23.688c6.465,7.044,12.93,16.435,27.475,17.606c-14.545-1.173-21.01-10.563-27.475-17.606
				c-6.705-7.789-12.046-15.763-16.957-23.688c-13.77,0.943-27.547,1.108-41.199-0.483c11.158,15.79,23.361,31.126,32.299,47.647
				c-8.938-16.521-21.141-31.857-32.299-47.647c-7.053-0.819-14.07-2.104-21.035-4.002c6.965,1.896,13.982,3.183,21.035,4.002
				c-11.041-15.619-21.061-31.686-25.885-49.783c-1.615-2.347-4.848-7.043-9.695-10.563c0.872,0,1.744-0.683,2.615-1.127
				l-131.102-31.74L475.96,642.095H201.212l-16.364-1.232c3.407,14.604-4.4,30.105-15.151,43.491
				c-6.774,7.871-7.869,16.567-8.999,25.396c1.383,0.122,2.767,0.262,4.15,0.429c-1.383-0.167-2.767-0.307-4.15-0.429
				c-0.218,1.705-0.437,3.414-0.699,5.123c0.262-1.709,0.481-3.418,0.699-5.123c-12.436-1.106-24.872-0.569-37.308-0.842
				c-3.735,1.674-7.989,3.098-11.875,4.791c3.886-1.693,8.141-3.117,11.875-4.791c-5.574-0.121-11.15-0.403-16.724-1.079
				c5.574,0.676,11.15,0.958,16.724,1.079c4.032-1.808,7.457-3.899,9.134-6.946c6.465-15.26,12.929-30.52,21.01-45.78
				c3.232-4.695,6.465-8.217,12.93-11.738c1.899-0.69,2.126-2.598,2.646-4.768L29.899,629.183l-286.062,26.999l29.092,214.815
				h1653.332l74.345-176.078L1296.287,671.486z"/>
		</g>
		<g>
			<defs>
				<rect id="SVGID_44_" width="1280" height="720"/>
			</defs>
			<clipPath id="SVGID_45_">
				<use xlink:href="#SVGID_44_"  overflow="visible"/>
			</clipPath>
			<g opacity="0.4" clip-path="url(#SVGID_45_)">
				<polygon fill="#28231A" points="498.174,661.787 561.531,725.621 264.773,725.621 328.13,661.787 				"/>
			</g>
		</g>
		<g>
			<defs>
				<rect id="SVGID_46_" width="1280" height="720"/>
			</defs>
			<clipPath id="SVGID_47_">
				<use xlink:href="#SVGID_46_"  overflow="visible"/>
			</clipPath>
			<path clip-path="url(#SVGID_47_)" fill="#69774D" d="M1093.941,537.408c-3.718,0-8.956,2.758-8.918,5.188
				c0.345,22.523,0.132,82.085,0.037,103.891c1.533,2.399,2.649,4.728,3.338,6.171c0.123,0.665,0.261,1.322,0.393,1.979h14.067
				c0,0,0-38.438,0-71.531c-0.337-0.298-0.667-0.603-1.021-0.878c0.354,0.275,0.686,0.58,1.021,0.878c0-16.779,0-32.186,0-40.51
				C1102.858,540.166,1097.656,537.408,1093.941,537.408z"/>
		</g>
		<g>
			<defs>
				<rect id="SVGID_48_" width="1280" height="720"/>
			</defs>
			<clipPath id="SVGID_49_">
				<use xlink:href="#SVGID_48_"  overflow="visible"/>
			</clipPath>
			<path clip-path="url(#SVGID_49_)" fill="#778185" d="M1157.223,608.409c1.463,1.11,3.043,2.175,4.797,3.166
				c21.578,12.537,41.869,22.301,59.747,37.536c2.661-2.723,5.806-4.906,4.899-8.189
				C1219.149,619.084,1186.465,610.453,1157.223,608.409z"/>
		</g>
		<g>
			<defs>
				<rect id="SVGID_50_" width="1280" height="720"/>
			</defs>
			<clipPath id="SVGID_51_">
				<use xlink:href="#SVGID_50_"  overflow="visible"/>
			</clipPath>
			<path clip-path="url(#SVGID_51_)" fill="#6E8B99" d="M1088.791,654.639c4.824,18.1,16.961,32.185,28.002,47.804
				c13.652,1.593,27.43,1.428,41.199,0.483c-12.008-19.384-21.409-38.503-41.687-54.095l-32.479-7.863
				c-0.871,0.444-1.743,1.127-2.615,1.127C1086.061,645.615,1087.176,652.293,1088.791,654.639z"/>
		</g>
		<g>
			<defs>
				<rect id="SVGID_52_" width="1280" height="720"/>
			</defs>
			<clipPath id="SVGID_53_">
				<use xlink:href="#SVGID_52_"  overflow="visible"/>
			</clipPath>
			<path clip-path="url(#SVGID_53_)" fill="#3E615C" d="M166.465,644.442c-6.465,3.521-9.697,7.043-12.93,11.738
				c-8.081,15.262-14.545,30.521-21.01,45.78c-1.678,3.047-5.103,5.141-9.134,6.946c12.436,0.271,24.872-0.266,37.308,0.842
				c1.129-8.829,2.225-17.525,8.999-25.396c10.75-13.387,18.558-28.89,15.151-43.492l-16.602-1.251
				C167.727,641.78,168.364,643.752,166.465,644.442z"/>
		</g>
		<g>
			<defs>
				<rect id="SVGID_54_" width="1280" height="720"/>
			</defs>
			<clipPath id="SVGID_55_">
				<use xlink:href="#SVGID_54_"  overflow="visible"/>
			</clipPath>
			<g clip-path="url(#SVGID_55_)">
				<g>
					<g>
						<path d="M326.251,662.282c0,1.996,1.618,3.614,3.614,3.614c1.996,0,3.614-1.618,3.614-3.614V594.89
							c0-1.995-1.618-3.613-3.614-3.613c-1.996,0-3.614,1.617-3.614,3.613V662.282z"/>
					</g>
				</g>
				<g>
					<g>
						<path d="M493.734,662.424c0,1.918,1.555,3.474,3.473,3.474s3.473-1.556,3.473-3.474v-67.675c0-1.918-1.555-3.473-3.473-3.473
							s-3.473,1.555-3.473,3.473V662.424z"/>
					</g>
				</g>
				<polygon fill="#D7FFD4" points="499.213,589.414 563.521,622.573 262.303,622.573 326.613,589.414 				"/>
			</g>
		</g>
		<g>
			<defs>
				<rect id="SVGID_56_" width="1280" height="720"/>
			</defs>
			<clipPath id="SVGID_57_">
				<use xlink:href="#SVGID_56_"  overflow="visible"/>
			</clipPath>
			<g clip-path="url(#SVGID_57_)">
				<path fill="#1E1E1E" d="M377.238,507.673c-0.023,0.015,0.103-0.322-0.169-0.501c-0.336-0.183-1.156-0.02-2.066,0.427
					c-1.909,0.816-4.678,2.147-8.276,3.946c-3.602,1.789-8.007,4.072-13.347,6.472c-2.67,1.18-5.59,2.442-8.89,3.269
					c-3.289,0.818-6.792,1.418-10.485,2.099c-3.691,0.673-7.574,1.381-11.578,2.34c-2,0.48-4.026,1.039-6.043,1.725
					c-2.001,0.702-4.028,1.523-5.787,2.712c-1.731,1.191-3.36,2.842-4.857,4.551c-1.467,1.727-2.902,3.656-3.628,5.711
					c-0.167,0.506-0.275,1.018-0.27,1.468c0.012,0.221,0.029,0.436,0.095,0.612c0.01,0.031,0.038,0.121,0.031,0.106
					c0.028,0.06,0.072,0.171,0.083,0.175c0.021,0.037,0.087,0.147,0.149,0.227c0.535,0.702,1.594,1.329,2.656,1.857
					c2.178,1.082,4.625,1.885,7.074,3.145c0.613,0.324,1.231,0.682,1.838,1.151c0.59,0.477,1.241,1.064,1.605,2.038
					c0.183,0.456,0.222,1.085,0.159,1.499l-0.028,0.254l-0.058,0.327c-0.037,0.229-0.096,0.403-0.146,0.604
					c-0.23,0.775-0.594,1.486-1.021,2.13c-0.862,1.285-1.969,2.289-3.124,3.174c-1.161,0.879-2.396,1.624-3.663,2.301
					c-5.092,2.664-10.645,4.394-16.372,5.9c-2.869,0.733-5.794,1.405-8.775,1.963c-2.953,0.567-5.942,1.144-8.966,1.725
					c-6.05,1.159-12.28,2.215-18.623,3.35c-6.346,1.081-12.825,2.187-19.427,3.313c-3.307,0.553-6.646,1.111-10.014,1.675
					c-3.377,0.496-6.784,0.997-10.22,1.502c-3.39,0.529-6.885,1.034-10.074,1.924c-0.847,0.245-1.695,0.491-2.545,0.738
					l-2.481,0.797c-1.656,0.536-3.338,1.128-5.01,1.717c-6.698,2.407-13.446,5.074-20.271,7.837
					c-6.83,2.757-13.728,5.623-20.782,8.43c-1.76,0.707-3.542,1.393-5.33,2.075l-2.706,1.003c-0.886,0.324-1.645,0.639-2.45,1.029
					c-3.197,1.553-6.151,3.807-8.936,6.316c-5.606,5.046-10.435,11.171-16.235,16.849c-1.468,1.411-3.013,2.791-4.748,4.039
					c-1.739,1.229-3.681,2.377-5.99,2.979c-0.577,0.15-1.158,0.259-1.785,0.323c-0.227,0.024-0.539,0.044-0.842,0.061l-0.814,0.026
					c-1.052,0.019-2.068,0.004-3.081-0.017c-2.007-0.054-4.018-0.106-6.034-0.161c-8.012-0.214-16.061-0.312-24.084,0.324
					c-4.007,0.32-8.005,0.815-11.917,1.633c-3.902,0.822-7.747,1.963-11.2,3.724c-3.437,1.742-6.468,4.214-8.042,7.471
					c-1.628,3.231-1.706,7.137-0.861,10.931c0.051,0.214,0.005,0.106,0.053,0.259l0.107,0.364c0.048,0.077,0.067,0.163,0.164,0.329
					c0.161,0.29,0.369,0.593,0.646,0.886c0.528,0.596,1.258,1.151,2.038,1.661c1.58,1.021,3.417,1.854,5.298,2.595
					c3.783,1.476,7.803,2.603,11.851,3.656c4.056,1.05,8.168,1.996,12.302,2.986c4.137,1.014,8.286,1.97,12.477,3.474
					c1.051,0.397,2.102,0.817,3.184,1.435c0.931,0.533,1.862,1.1,2.731,1.525c1.782,0.915,3.692,1.744,5.628,2.441
					c3.889,1.401,7.957,2.397,12.085,3.14c8.274,1.453,16.772,1.948,25.275,1.99c8.509,0.044,17.045-0.386,25.569-1.03
					c17.053-1.313,34.046-3.584,51.002-5.771c8.482-1.083,16.954-2.179,25.473-2.932c8.544-0.733,17.043-0.954,25.519-1.03
					c8.474-0.042,16.92,0.133,25.32,0.731c4.199,0.31,8.387,0.71,12.553,1.344c2.082,0.314,4.16,0.677,6.225,1.148
					c2.072,0.479,4.106,1.008,6.152,1.827c4.028,1.631,7.52,4.041,10.939,6.276c3.418,2.256,6.854,4.349,10.508,5.968
					c7.291,3.282,15.251,4.743,23.174,5.155c7.944,0.406,15.887-0.08,23.75-0.627c7.862-0.575,15.647-1.321,23.352-2.064
					c15.412-1.459,30.499-3.082,45.313-3.482c3.703-0.083,7.391-0.076,11.06,0.137c3.683,0.208,7.282,0.718,10.836,1.24
					c7.105,1.079,14.043,2.344,20.886,3.436c6.84,1.097,13.578,2.062,20.218,2.652c6.632,0.575,13.19,0.826,19.516,0.151
					c3.154-0.347,6.254-0.928,9.152-1.955c2.888-1.021,5.579-2.536,7.606-4.675c2.035-2.152,3.475-4.813,4.636-7.523
					c1.148-2.729,2.003-5.55,2.687-8.372c1.35-5.656,2.012-11.325,2.3-16.841c0.277-5.52,0.154-10.902-0.32-16.083
					c-0.475-5.179-1.298-10.164-2.552-14.85c-1.26-4.672-2.934-9.095-5.375-12.825c-1.217-1.854-2.657-3.524-4.321-4.799
					c-1.699-1.299-3.547-2.273-5.437-3.068c-3.786-1.576-7.656-2.428-11.335-3.024c-7.392-1.139-14.112-1.229-19.925-1.144
					c-5.821,0.114-10.767,0.483-14.767,0.854c-4,0.375-7.057,0.765-9.112,1.046c-2.058,0.282-3.111,0.46-3.111,0.46l-0.067-0.396
					c0,0,1.061-0.187,3.119-0.484c2.06-0.297,5.119-0.71,9.125-1.116c4.006-0.401,8.959-0.808,14.8-0.966
					c5.834-0.13,12.582-0.092,20.054,1.001c3.723,0.577,7.647,1.404,11.543,2.992c1.935,0.795,3.881,1.805,5.642,3.13
					c1.794,1.354,3.293,3.087,4.567,5.002c2.545,3.845,4.268,8.34,5.575,13.074c1.299,4.747,2.158,9.78,2.668,15.011
					c0.51,5.229,0.664,10.663,0.417,16.242c-0.261,5.575-0.895,11.313-2.235,17.08c-0.679,2.88-1.535,5.769-2.705,8.594
					c-1.185,2.804-2.664,5.607-4.857,7.96c-2.213,2.357-5.104,3.987-8.13,5.078c-3.04,1.097-6.239,1.712-9.474,2.086
					c-6.482,0.729-13.122,0.506-19.82-0.036c-6.703-0.558-13.482-1.49-20.349-2.551c-6.867-1.056-13.82-2.279-20.887-3.313
					c-3.534-0.501-7.096-0.981-10.677-1.163c-3.591-0.188-7.232-0.173-10.899-0.069c-14.68,0.473-29.745,2.146-45.149,3.675
					c-7.705,0.775-15.499,1.557-23.396,2.169c-7.889,0.582-15.91,1.114-24.044,0.732c-8.11-0.388-16.4-1.854-24.06-5.263
					c-3.83-1.677-7.43-3.854-10.882-6.111c-3.459-2.246-6.835-4.53-10.513-5.995c-3.669-1.406-7.758-2.16-11.808-2.769
					c-4.07-0.602-8.203-0.979-12.352-1.267c-8.303-0.559-16.693-0.696-25.109-0.618c-8.413,0.109-16.881,0.369-25.283,1.128
					c-8.423,0.781-16.871,1.91-25.339,3.027c-16.936,2.265-33.971,4.601-51.137,6.02c-8.583,0.696-17.198,1.179-25.834,1.181
					c-8.631,0.004-17.3-0.445-25.879-1.902c-4.284-0.747-8.544-1.762-12.691-3.229c-2.079-0.739-4.092-1.594-6.103-2.611
					c-1.042-0.516-1.932-1.055-2.851-1.573c-0.77-0.437-1.7-0.813-2.638-1.16c-3.827-1.354-7.975-2.304-12.073-3.279
					c-4.115-0.963-8.256-1.893-12.383-2.936c-4.127-1.054-8.25-2.176-12.315-3.734c-2.03-0.791-4.052-1.676-6.011-2.919
					c-0.974-0.634-1.944-1.34-2.823-2.302c-0.441-0.47-0.852-1.022-1.199-1.646c-0.167-0.286-0.342-0.688-0.489-1.097l-0.116-0.388
					c-0.035-0.098-0.113-0.467-0.119-0.507c-0.492-2.18-0.746-4.46-0.606-6.773c0.142-2.305,0.675-4.656,1.74-6.771
					c1.032-2.131,2.517-4,4.224-5.522c1.697-1.546,3.599-2.769,5.557-3.775c3.929-2.013,8.074-3.232,12.205-4.122
					c4.14-0.878,8.294-1.401,12.428-1.745c8.27-0.676,16.472-0.624,24.535-0.372c2.005,0.058,4.006,0.115,6.002,0.174
					c1.958,0.016,4.021,0.139,5.41-0.252c1.567-0.396,3.137-1.273,4.626-2.328c1.492-1.066,2.917-2.324,4.298-3.647
					c5.516-5.356,10.443-11.574,16.367-16.899c2.964-2.655,6.188-5.136,9.894-6.932c0.917-0.444,1.928-0.856,2.836-1.186
					l2.658-0.979c1.768-0.679,3.531-1.354,5.289-2.027c7.029-2.731,13.958-5.548,20.825-8.257c6.866-2.716,13.67-5.345,20.476-7.729
					c1.71-0.588,3.4-1.168,5.13-1.714c0.866-0.271,1.729-0.539,2.592-0.808c0.852-0.24,1.703-0.479,2.551-0.72
					c3.621-0.971,7.08-1.421,10.542-1.938c3.432-0.478,6.834-0.949,10.208-1.418c3.361-0.535,6.693-1.065,9.993-1.591
					c6.606-1.072,13.087-2.126,19.437-3.157c6.336-1.073,12.54-2.124,18.604-3.151c3.032-0.54,6.028-1.074,8.989-1.602
					c2.938-0.507,5.816-1.127,8.638-1.81c5.621-1.393,11.081-3.03,15.881-5.465c2.356-1.225,4.634-2.697,5.981-4.609
					c0.325-0.475,0.583-0.971,0.742-1.478c0.03-0.123,0.081-0.266,0.095-0.367l0.036-0.164l0.031-0.244
					c0.031-0.243,0.021-0.299-0.029-0.466c-0.087-0.291-0.416-0.679-0.843-1.019c-0.43-0.345-0.947-0.659-1.484-0.952
					c-2.187-1.171-4.64-2.021-6.982-3.216c-1.162-0.629-2.378-1.248-3.376-2.532c-0.124-0.171-0.224-0.323-0.344-0.563
					c-0.068-0.131-0.076-0.167-0.113-0.248c-0.063-0.157-0.074-0.22-0.111-0.335c-0.131-0.409-0.163-0.818-0.172-1.213
					c0.006-0.784,0.183-1.484,0.405-2.133c0.958-2.555,2.519-4.501,4.097-6.332c1.628-1.797,3.283-3.457,5.299-4.811
					c2.027-1.309,4.171-2.112,6.267-2.808c2.105-0.67,4.187-1.199,6.228-1.647c4.083-0.896,8-1.531,11.706-2.136
					c3.702-0.607,7.219-1.145,10.437-1.88c3.212-0.735,6.098-1.917,8.778-3.04c5.343-2.285,9.801-4.472,13.449-6.165
					c3.639-1.713,6.463-2.985,8.395-3.758c0.95-0.404,1.795-0.682,2.443-0.37c0.332,0.191,0.373,0.526,0.375,0.669
					c0.003,0.181-0.014,0.213-0.011,0.224L377.238,507.673z"/>
			</g>
		</g>
		<g>
			<defs>
				<rect id="SVGID_58_" width="1280" height="720"/>
			</defs>
			<clipPath id="SVGID_59_">
				<use xlink:href="#SVGID_58_"  overflow="visible"/>
			</clipPath>
			<g clip-path="url(#SVGID_59_)">
				<path fill="#333331" d="M171.407,479.677l-2.744,156.751c0.388-0.982,0.944-1.968,1.853-2.876
					c-0.909,0.908-1.465,1.894-1.853,2.876l-0.056,3.21l16.241,1.225v-3.079c-0.075-0.235-0.123-0.474-0.205-0.71
					c0.082,0.236,0.13,0.475,0.205,0.71l0.686-158.105L171.407,479.677L171.407,479.677z"/>
			</g>
		</g>
		<g>
			<defs>
				<rect id="SVGID_60_" width="1280" height="720"/>
			</defs>
			<clipPath id="SVGID_61_">
				<use xlink:href="#SVGID_60_"  overflow="visible"/>
			</clipPath>
			<g clip-path="url(#SVGID_61_)">
				<path fill="#69774D" d="M1082.486,558.598c0-2.432-5.201-5.188-8.915-5.188c-3.718,0-8.956,2.758-8.917,5.188
					c0.099,6.369,0.148,15.085,0.174,24.744c0.081,32.494,24.194,32.993,24.194,32.993l-0.169-16.313c0,0-1.734,2.928-3.323-0.696
					c-1.6-3.641-3.044-13.88-3.044-29.885C1082.486,559.895,1082.486,564.293,1082.486,558.598z"/>
			</g>
		</g>
		<g>
			<defs>
				<rect id="SVGID_62_" width="1280" height="720"/>
			</defs>
			<clipPath id="SVGID_63_">
				<use xlink:href="#SVGID_62_"  overflow="visible"/>
			</clipPath>
			<g clip-path="url(#SVGID_63_)">
				<g>
					<g>
						<g>
							<g>
								<g enable-background="new    ">
									<defs>
										<polygon id="SVGID_64_" enable-background="new    " points="86.228,584.905 85.366,451.53 260.699,398.792 
											261.561,532.167 										"/>
									</defs>
									<clipPath id="SVGID_65_">
										<use xlink:href="#SVGID_64_"  overflow="visible"/>
									</clipPath>
									<g clip-path="url(#SVGID_65_)">
										<g>
											<g>
												<g>
													<path fill="#A7A891" d="M231.324,512.216l0.014,2.245l1.57-0.472c0.554-0.167,1.018-0.355,1.406-0.583
														C233.325,512.992,232.327,512.597,231.324,512.216 M182.653,523.356l-1.385,0.417l0.037,5.736l0.769-0.23
														c0.27-0.081,0.542-0.152,0.811-0.233c0.477-0.144,0.939-0.313,1.349-0.614c0.969-0.722,1.095-2.001,1.088-2.965
														C185.309,523.42,184.89,522.684,182.653,523.356 M217.666,507.935l0.013,2l3.425-1.029
														C219.96,508.578,218.812,508.254,217.666,507.935 M111.798,536.99l-1.646,0.495l0.035,5.462l1.925-0.579
														c1.57-0.472,2.614-1.44,2.599-3.746C114.698,536.445,113.826,536.381,111.798,536.99 M127.805,532.176l-2.668,0.803
														l0.034,5.238l2.821-0.849c1.182-0.435,2.104-1.479,2.092-3.37C130.069,531.873,129.165,531.792,127.805,532.176
														 M182.89,515.606l-1.671,0.503l0.032,4.877l0.667-0.201c0.112-0.033,0.228-0.067,0.346-0.104
														c0.809-0.242,1.728-0.56,2.217-1.321c0.333-0.583,0.38-1.253,0.374-2.165
														C184.846,515.777,184.53,515.165,182.89,515.606 M143.771,526.993c-2.827,0.851-2.571,4.092-2.562,5.555l0.034,5.264
														c0.01,1.566,0.153,4.083,2.619,3.343c2.567-0.772,2.576-3.378,2.564-5.201l-0.032-4.86
														C146.385,529.578,146.439,526.19,143.771,526.993 M177.216,497.431l-0.149,0.76l1.422-0.429
														C178.064,497.651,177.64,497.542,177.216,497.431 M167.1,494.729c-0.421,0.746-0.749,1.61-0.939,2.577
														c-0.524,2.666-0.028,4.457,2.653,3.65c0.946-0.285,2.678-1.255,3.698-4.044l1.273-0.383
														C171.554,495.94,169.326,495.342,167.1,494.729 M148.549,498.968l-0.032,0.01l-2.714,5.515l3.361-1.011
														L148.549,498.968 M135.129,484.61c0.601,1.229,1.12,2.395,1.56,3.558l0.038-0.046
														c-0.071-1.005-0.122-1.979-0.157-2.979C136.088,484.967,135.609,484.789,135.129,484.61 M119.902,479.668
														c-2.745,0.825-4.21,4.68-4.184,8.791c0.027,4.138,1.573,7.009,4.261,6.2c2.783-0.837,4.216-4.769,4.19-8.742
														C124.146,482.184,122.806,478.794,119.902,479.668 M106.661,554.756l-0.123-18.976l7.345-2.21
														c3.438-1.034,4.51,1.385,4.527,4.042c0.011,1.616-0.416,3.572-1.77,5.04c-1.078,1.175-2.509,1.894-3.846,2.296
														c-0.059,0.018-0.117,0.034-0.175,0.052l-2.415,0.727l0.051,7.947L106.661,554.756 M121.644,550.249l-0.123-18.976
														l6.806-2.048c3.107-0.936,5.478-0.578,5.5,2.912c0.013,2.073-0.513,4.413-2.925,5.466v0.053
														c2.131-0.365,2.781,0.783,2.793,2.606c0.005,0.783-0.066,5.468,0.808,5.765l0.002,0.354l-3.953,1.188
														c-0.439-1.083-0.378-3.438-0.412-4.693c-0.033-1.154-0.018-2.753-1.253-2.744c-0.826,0.018-1.699,0.261-2.569,0.522
														c-0.163,0.049-0.326,0.099-0.488,0.146l-0.642,0.193l0.053,8.172L121.644,550.249 M157.484,527.989l5.033-1.515
														l-0.049-7.519l3.597-1.082l0.123,18.976l-3.597,1.082l-0.056-8.68l-5.032,1.514l0.056,8.681l-3.59,1.08l-0.123-18.977
														l3.59-1.08L157.484,527.989 M170.185,535.648l-0.123-18.977l3.596-1.082l0.123,18.977L170.185,535.648
														 M177.733,533.378l-0.123-18.976l5.801-1.745c1.538-0.463,3.057-0.816,4.088,0.166
														c0.826,0.795,0.967,1.838,0.975,3.129c0.011,1.643-0.341,3.368-2.287,4.669v0.053c2.029-0.335,2.809,1.103,2.824,3.555
														c0.005,0.782-0.04,1.59-0.239,2.407c-0.753,2.631-2.138,4.064-4.706,4.837L177.733,533.378 M192.621,528.899
														l-0.123-18.977l3.596-1.082l0.123,18.978L192.621,528.899 M143.881,544.018c-5.903,1.775-6.315-1.807-6.348-6.864
														l-0.018-2.701c0.122-4.88,0.486-8.583,6.237-10.313c5.75-1.729,6.155,1.742,6.345,6.528l0.017,2.701
														C150.147,538.427,149.784,542.242,143.881,544.018 M101.407,517.018l-0.011-1.737l36.988-11.125l0.011,1.736
														L101.407,517.018 M141.802,510.072l6.298-12.557l1.652-0.497l1.683,10.155l-1.595,0.479l-0.42-2.977l-4.333,1.304
														l-1.779,3.638L141.802,510.072 M157.137,505.745c-2.452,0.737-4.534-0.214-3.677-4.574
														c0.69-3.483,3.059-6.471,6.204-7.417c2.783-0.837,3.875,0.541,3.708,2.376l-1.411,0.424
														c-0.019-1.863-1.527-1.756-2.563-1.443c-1.957,0.589-3.835,2.584-4.421,5.562c-0.53,2.668-0.028,4.456,2.653,3.649
														c0.947-0.284,2.679-1.254,3.692-4.041l1.417-0.426C161.298,504.313,157.95,505.5,157.137,505.745 M109.508,499.73
														c-3.705,1.113-6.528-1.32-6.566-7.29c-0.037-5.704,2.74-10.393,6.839-11.624c1.627-0.489,2.685-0.344,3.138-0.16
														l-0.4,2.052c-0.645-0.245-1.568-0.287-2.667,0.044c-3.101,0.933-5.136,4.276-5.105,9.061
														c0.029,4.464,1.909,6.769,5.125,5.802c1.035-0.313,2.095-0.923,2.778-1.596l0.362,1.788
														C112.383,498.4,111.135,499.241,109.508,499.73 M85.491,458.077c-0.048,0.428-0.077,0.868-0.074,1.298l0.76,117.677
														c0.028,4.336,2.599,7.087,5.738,6.145l163.952-49.315c0.49-0.146,0.959-0.384,1.409-0.683
														c-4.625-9.281-11.869-14.646-19.917-18.439c-0.09,0.088-0.184,0.177-0.281,0.263c-0.791,0.693-1.77,1.039-2.666,1.31
														l-6.646,1.999l-0.048-7.423c-0.436-0.151-0.872-0.304-1.308-0.451c-0.904-0.271-1.811-0.537-2.717-0.803l0.008,1.256
														l-6.005,1.806l0.038,5.841l6.52-1.961l0.018,2.787l-10.116,3.042l-0.1-15.479c-0.981-0.269-1.962-0.532-2.947-0.795
														l0.006,0.971l-4.181,1.257l0.104,16.188l-3.597,1.081l-0.104-16.188l-4.207,1.266l-0.018-2.787l8.779-2.641
														c-9-2.369-18.071-4.611-27.124-6.941l-5.429,1.633l0.569-2.896c-0.67-0.176-1.339-0.352-2.009-0.528
														c-1.455,4.398-4.77,5.576-5.579,5.819c-2.453,0.738-4.534-0.214-3.671-4.576c0.238-1.214,0.682-2.366,1.291-3.395
														c-6.908-1.912-13.773-3.946-20.574-6.202l0.003,0.435l-1.722,0.519l-0.01-1.531c-1.844-0.623-3.681-1.263-5.513-1.922
														l0.033,5.104l-1.722,0.518l-4.154-7.8c-0.841-0.324-1.682-0.653-2.521-0.987c0.017,0.914,0.028,1.896,0.035,2.984
														l0.05,7.785l-1.627,0.488l-0.077-11.909c-0.979-0.398-1.954-0.804-2.928-1.215c0.484,1.268,0.742,2.854,0.754,4.648
														c0.039,6.056-2.741,10.279-6.071,11.28c-3.571,1.073-5.966-2.084-6.001-7.513c-0.034-5.17,2.099-9.561,5.297-11.065
														C107.508,472.675,96.202,466.21,85.491,458.077"/>
													<path fill="#CAD1B9" d="M233.616,500.349l-2.364,0.711l0.072,11.156c1.003,0.381,2,0.776,2.99,1.19
														c1.862-1.092,1.989-3.06,1.96-7.601C236.245,501.333,235.77,499.701,233.616,500.349 M129.67,478.005l-0.057,0.044
														c0.071,1.451,0.118,2.868,0.147,4.493c0.838,0.334,1.679,0.663,2.521,0.987l-0.099-0.187
														C131.247,481.591,130.351,479.774,129.67,478.005 M153.792,469.939l-0.057,0.018c-0.171,1.129-0.38,2.303-0.627,3.489
														l-1.262,5.663l3.984-1.198l-1.33-4.858C154.2,471.955,153.996,470.93,153.792,469.939 M199.047,456.327l-0.057,0.018
														c-0.171,1.129-0.38,2.305-0.627,3.489l-1.262,5.663l3.984-1.198l-1.331-4.856
														C199.455,458.343,199.251,457.317,199.047,456.327 M224.741,448.133c-2.746,0.826-4.21,4.68-4.184,8.792
														c0.026,4.138,1.573,7.008,4.261,6.199c2.783-0.837,4.209-4.766,4.184-8.739
														C228.978,450.65,227.639,447.262,224.741,448.133 M151.982,452.885l-0.025,0.008l-1.358,4.623l2.751-0.828
														L151.982,452.885 M194.391,440.129l-0.032,0.009l-1.358,4.624l2.751-0.828L194.391,440.129 M172.503,446.151
														l-1.786,0.536l0.021,3.122l2.09-0.628c1.684-0.507,1.676-1.693,1.673-2.166
														C174.494,445.975,173.907,445.729,172.503,446.151 M135.683,466.865c-1.128,0.339-2.253,0.26-3.393-0.24
														c0.707-1.928,1.389-3.788,1.983-5.415c0.979-0.294,1.805-0.542,2.79-0.839c0.607,1.248,1.31,2.691,2.052,4.201
														C137.954,465.759,136.816,466.524,135.683,466.865 M135.669,459.791c-0.004,0.001-0.007,0.002-0.011,0.003
														c-0.921,0.277-1.716-0.578-1.712-1.864c-0.002-1.268,0.779-2.562,1.688-2.834c0.01-0.004,0.021-0.007,0.032-0.01
														c0.928-0.245,1.704,0.643,1.687,1.923C137.33,458.252,136.561,459.522,135.669,459.791 M138.451,456.531
														c-0.483-0.991-0.903-1.849-1.413-2.875c0.57-1.551,1.252-3.41,1.927-5.26c1.932,0.505,3.539,3.719,3.477,6.935
														C141.063,455.746,139.678,456.163,138.451,456.531 M128.933,459.43c-0.442-2.419,1.234-7.085,3.277-9.026
														c0.704,1.435,1.407,2.877,2,4.087c-0.488,1.336-0.901,2.477-1.37,3.765
														C131.659,458.609,130.292,459.021,128.933,459.43 M135.58,446.854c-0.004,0.002-0.008,0.004-0.012,0.005
														c-4.232,1.271-7.639,7.055-7.607,12.89c0.038,5.832,3.513,9.562,7.732,8.301c4.231-1.265,7.664-7.036,7.64-12.854
														C143.301,449.313,139.832,445.576,135.58,446.854 M210.927,444.232c-1.127,0.339-2.25,0.259-3.39-0.241
														c0.707-1.929,1.389-3.788,1.983-5.414c0.979-0.295,1.798-0.541,2.79-0.84c0.606,1.249,1.31,2.69,2.046,4.203
														C213.195,443.128,212.059,443.892,210.927,444.232 M210.917,437.157c-0.004,0.001-0.007,0.002-0.011,0.003
														c-0.928,0.279-1.723-0.576-1.718-1.862c0.004-1.27,0.78-2.562,1.693-2.836c0.011-0.003,0.021-0.007,0.033-0.01
														c0.928-0.244,1.704,0.643,1.681,1.925C212.57,435.621,211.808,436.889,210.917,437.157 M213.698,433.898
														c-0.484-0.992-0.91-1.848-1.413-2.876c0.569-1.552,1.245-3.408,1.927-5.261c1.926,0.507,3.539,3.72,3.477,6.936
														C216.31,433.112,214.925,433.529,213.698,433.898 M204.173,436.798c-0.442-2.419,1.24-7.087,3.284-9.029
														c0.697,1.438,1.4,2.881,1.994,4.09c-0.481,1.334-0.894,2.475-1.363,3.763
														C206.906,435.976,205.54,436.387,204.173,436.798 M210.82,424.223c-0.003,0.002-0.007,0.003-0.011,0.004
														c-4.232,1.272-7.639,7.056-7.601,12.889c0.038,5.832,3.506,9.563,7.725,8.303c4.238-1.267,7.671-7.038,7.64-12.855
														C218.548,426.68,215.072,422.944,210.82,424.223 M211.208,483.99l-0.011-1.738l32.775-9.858l0.012,1.738
														L211.208,483.99 M189.409,494.806c1.055-0.316,2.889-1.137,3.21-2.769c0.228-1.179-0.219-1.398-1.912-1.313
														l-2.106,0.135c-0.675,0.04-2.165-0.004-1.776-1.982c0.345-1.768,1.79-3.831,4.408-4.618
														c3.774-1.136,3.687,1.123,3.504,2.352l-1.372,0.411c0.269-1.734-1.006-1.868-2.226-1.502
														c-0.915,0.275-2.521,1.009-2.86,2.73c-0.191,0.963,0.396,1.079,1,1.053l2.934-0.185
														c1.336-0.075,2.212,0.489,1.861,2.293c-0.53,2.685-3.055,4.143-4.904,4.699c-2.002,0.602-2.66,0.205-3.051-0.108
														c-0.748-0.595-0.742-1.484-0.538-2.545l1.373-0.413C186.552,495.095,188.023,495.222,189.409,494.806 M199.734,491.699
														c1.055-0.317,2.883-1.135,3.203-2.767c0.235-1.182-0.219-1.397-1.905-1.313l-2.106,0.135
														c-0.675,0.039-2.171-0.003-1.783-1.979c0.351-1.771,1.79-3.831,4.408-4.619c3.781-1.138,3.693,1.122,3.504,2.351
														l-1.366,0.411c0.269-1.735-1.012-1.867-2.225-1.502c-0.921,0.276-2.521,1.008-2.86,2.73
														c-0.191,0.963,0.396,1.078,0.994,1.055l2.94-0.188c1.33-0.071,2.212,0.49,1.854,2.296
														c-0.523,2.684-3.048,4.142-4.903,4.698c-2.001,0.604-2.66,0.205-3.05-0.107c-0.749-0.595-0.742-1.483-0.532-2.547
														l1.373-0.412C196.871,491.991,198.349,492.116,199.734,491.699 M148.407,487.729l4.394-19.585l2.04-0.612l4.623,16.872
														l-1.823,0.549l-1.448-5.305l-4.684,1.407l-1.316,6.138L148.407,487.729 M167.614,478.805l0.063-0.02
														c0.319-1.933,0.775-4.214,1.37-6.694l2.294-9.523l2.173-0.653l0.944,17.979l-1.684,0.508l-0.344-7.912
														c-0.137-2.484-0.278-5.527-0.267-7.78l-0.063,0.02c-0.438,2.251-1.006,4.88-1.639,7.51l-2.237,9.421l-1.354,0.407
														l-2.153-8.04c-0.665-2.378-1.188-4.581-1.558-6.608l-0.058,0.018c-0.042,2.264-0.08,5.309-0.202,8.111l-0.299,7.915
														l-1.633,0.491l0.81-18.506l2.173-0.653l2.313,8.164C166.825,474.983,167.271,477.012,167.614,478.805 M177.064,479.108
														l-0.118-18.229l1.722-0.518l0.118,18.227L177.064,479.108 M190.217,472.066l0.038-0.047
														c-0.174-2.378-0.227-4.586-0.245-7.397l-0.049-7.655l1.607-0.482l0.118,18.227l-1.722,0.52l-4.26-7.984
														c-0.935-1.753-1.825-3.57-2.505-5.34l-0.063,0.045c0.117,2.267,0.169,4.449,0.188,7.477l0.05,7.784l-1.626,0.489
														l-0.118-18.228l1.899-0.571l4.272,7.928C188.782,468.706,189.576,470.39,190.217,472.066 M193.662,474.116
														l4.394-19.585l2.04-0.613l4.623,16.872l-1.824,0.549l-1.448-5.305l-4.683,1.408l-1.316,6.137L193.662,474.116
														 M203.533,454.892l-0.013-2.004l9.786-2.942l0.013,2.004l-4.042,1.216l0.105,16.224l-1.722,0.519l-0.104-16.225
														L203.533,454.892 M214.872,467.736l-0.118-18.229l1.722-0.518l0.118,18.227L214.872,467.736 M241.527,456.633
														l0.038-0.046c-0.175-2.378-0.228-4.586-0.246-7.397l-0.049-7.655l1.608-0.483l0.118,18.228l-1.722,0.519l-4.26-7.984
														c-0.928-1.755-1.825-3.569-2.505-5.34l-0.063,0.045c0.117,2.268,0.169,4.448,0.188,7.478l0.05,7.784l-1.627,0.488
														l-0.118-18.227l1.9-0.572l4.279,7.926C240.092,453.272,240.886,454.956,241.527,456.633 M224.729,465.073
														c-3.565,1.071-5.96-2.086-5.995-7.516c-0.036-5.6,2.467-10.282,6.108-11.378c3.768-1.134,5.93,2.336,5.964,7.609
														C230.846,459.846,228.065,464.069,224.729,465.073 M146.889,462.674l3.788-11.801l2.599-0.782l3.881,9.494
														l-2.453,0.737l-0.707-1.984l-3.99,1.2l-0.736,2.419L146.889,462.674 M158.962,459.042l-0.069-10.641l2.255-0.68
														l0.057,8.713l5.369-1.613l0.013,1.927L158.962,459.042 M168.512,456.169l-0.069-10.641l4.938-1.484
														c2.09-0.629,3.363,0.307,3.377,2.396c0.006,0.963-0.519,3.56-3.422,4.434l-2.586,0.777l0.025,3.838L168.512,456.169
														 M181.051,445.77l4.213-1.267l-0.026-4.026l2.255-0.678l0.069,10.642l-2.255,0.678l-0.031-4.773l-4.213,1.268
														l0.031,4.773l-2.255,0.679l-0.069-10.641l2.255-0.679L181.051,445.77 M189.291,449.919l3.788-11.801l2.605-0.783
														l3.875,9.496l-2.453,0.737l-0.707-1.985l-3.99,1.2l-0.736,2.419L189.291,449.919 M134.588,469.563
														c-0.134-0.028-0.262-0.076-0.396-0.079c-3.349,0.043-5.564-2.032-6.687-6.15c-0.156-0.564-0.255-1.164-0.387-1.745
														c-0.007-1.05-0.014-2.091-0.02-3.14c0.049-0.196,0.112-0.389,0.136-0.576c0.479-3.764,1.865-6.947,4.18-9.401
														c0.93-0.985,2.008-1.646,3.021-2.451c0.756-0.228,1.512-0.454,2.275-0.685c0.127,0.021,0.255,0.078,0.389,0.072
														c3.349-0.033,5.565,2.041,6.687,6.159c0.157,0.557,0.256,1.164,0.387,1.746c0.007,1.049,0.014,2.09,0.02,3.14
														c-0.043,0.159-0.112,0.317-0.13,0.47c-0.533,4.289-2.198,7.72-4.938,10.269c-0.715,0.664-1.508,1.136-2.262,1.688
														C136.101,469.107,135.345,469.335,134.588,469.563 M209.829,446.931c-0.127-0.03-0.255-0.078-0.389-0.081
														c-3.349,0.042-5.565-2.031-6.693-6.148c-0.15-0.566-0.256-1.164-0.38-1.747c-0.007-1.05-0.013-2.091-0.02-3.14
														c0.043-0.194,0.112-0.388,0.136-0.576c0.479-3.764,1.859-6.945,4.18-9.401c0.923-0.984,2.001-1.645,3.015-2.449
														c0.756-0.228,1.519-0.457,2.275-0.684c0.134,0.02,0.261,0.075,0.395,0.069c3.342-0.03,5.565,2.041,6.687,6.159
														c0.15,0.559,0.256,1.164,0.381,1.747c0.007,1.05,0.013,2.09,0.02,3.141c-0.043,0.159-0.106,0.315-0.13,0.47
														c-0.533,4.289-2.198,7.72-4.932,10.266c-0.715,0.664-1.508,1.137-2.269,1.691
														C211.348,446.474,210.585,446.703,209.829,446.931 M255.005,400.504L91.053,449.819
														c-2.821,0.849-5.141,4.398-5.562,8.258c10.711,8.133,22.017,14.598,33.702,19.95c0.265-0.125,0.538-0.23,0.817-0.314
														c2.481-0.746,4.266,0.51,5.204,2.964c0.974,0.411,1.95,0.815,2.928,1.214l-0.041-6.316l1.907-0.573l4.272,7.928
														c0.299,0.577,0.582,1.138,0.849,1.684c0.48,0.179,0.959,0.355,1.44,0.532c-0.049-1.372-0.071-2.796-0.082-4.423
														l-0.049-7.654l1.602-0.481l0.084,13.123c1.832,0.659,3.669,1.299,5.513,1.922l-0.095-14.691l-4.022,1.21l-0.013-2.004
														l9.786-2.943l0.013,2.004l-4.042,1.216l0.102,15.789c6.801,2.256,13.667,4.29,20.574,6.202
														c1.139-1.921,2.857-3.403,4.906-4.021c2.79-0.84,3.875,0.541,3.714,2.373l-1.417,0.428
														c-0.012-1.867-1.526-1.757-2.562-1.445c-1.321,0.397-2.606,1.438-3.482,2.984c2.226,0.611,4.454,1.211,6.686,1.801
														l0.137-0.041c-0.008,0.022-0.016,0.048-0.023,0.071c0.67,0.178,1.339,0.354,2.009,0.528l1.657-8.437l7.873-2.368
														l-0.265,1.354l-6.412,1.93l-0.684,3.473l5.916-1.779l-0.271,1.357l-5.909,1.777l-0.597,3.032
														c0.424,0.111,0.848,0.222,1.272,0.331l5.091-1.53l-0.265,1.354l-2.545,0.767c9.052,2.33,18.123,4.572,27.124,6.941
														l3.205-0.964l0.012,1.816c0.984,0.263,1.965,0.526,2.947,0.795l-0.022-3.495l10.116-3.043l0.018,2.787l-6.52,1.962
														l0.018,2.782c1.146,0.318,2.295,0.644,3.438,0.97l2.58-0.776l0.01,1.523c0.907,0.266,1.813,0.531,2.717,0.803
														c0.436,0.148,0.873,0.3,1.308,0.451l-0.075-11.553l7.492-2.255c0.876-0.264,2.621-0.398,3.737,1.031
														c0.828,1.069,1.077,3.099,1.097,6.236c0.023,3.619,0.05,7.785-2.61,10.392c8.047,3.794,15.291,9.158,19.917,18.439
														c2.453-1.601,4.257-5.219,4.233-8.884l-0.76-117.678C260.722,402.31,258.151,399.559,255.005,400.504"/>
													<path d="M150.599,457.516l1.358-4.623l0.025-0.008l1.368,3.804L150.599,457.516 M153.276,450.091l-2.599,0.782
														l-3.788,11.801l2.383-0.717l0.736-2.419l3.99-1.2l0.707,1.984l2.453-0.737L153.276,450.091"/>
													<polyline points="161.148,447.723 158.893,448.401 158.962,459.042 166.587,456.748 166.574,454.821 161.205,456.436 
														161.148,447.723 													"/>
													<path d="M170.738,449.811l-0.021-3.121l1.786-0.537c1.404-0.422,1.991-0.178,1.998,0.864
														c0.003,0.473,0.011,1.659-1.673,2.166L170.738,449.811 M173.381,444.044l-4.938,1.484l0.069,10.641l2.262-0.68
														l-0.025-3.838l2.586-0.777c2.903-0.874,3.428-3.471,3.422-4.434C176.744,444.351,175.471,443.415,173.381,444.044"/>
													<polyline points="187.493,439.799 185.238,440.477 185.264,444.503 181.051,445.77 181.024,441.744 178.769,442.423 
														178.838,453.063 181.093,452.385 181.063,447.61 185.275,446.344 185.307,451.117 187.562,450.439 187.493,439.799 
																											"/>
													<path d="M193.001,444.762l1.358-4.624l0.032-0.009l1.361,3.805L193.001,444.762 M195.684,437.335l-2.605,0.783
														l-3.788,11.801l2.383-0.717l0.736-2.419l3.99-1.2l0.707,1.985l2.453-0.737L195.684,437.335"/>
													<path d="M109.78,480.816c-4.099,1.231-6.876,5.92-6.839,11.624c0.039,5.97,2.862,8.403,6.566,7.29
														c1.627-0.489,2.875-1.33,3.502-1.925l-0.362-1.788c-0.683,0.673-1.743,1.283-2.778,1.596
														c-3.216,0.967-5.096-1.338-5.125-5.803c-0.031-4.782,2.004-8.127,5.105-9.06c1.1-0.331,2.022-0.289,2.667-0.044
														l0.4-2.052C112.465,480.474,111.407,480.327,109.78,480.816"/>
													<path d="M119.98,494.659c-2.688,0.809-4.234-2.063-4.261-6.2c-0.026-4.111,1.438-7.966,4.184-8.791
														c2.904-0.874,4.244,2.516,4.268,6.249C124.196,489.892,122.763,493.822,119.98,494.659 M120.01,477.713
														c-0.279,0.084-0.552,0.189-0.817,0.314c-3.198,1.506-5.331,5.896-5.297,11.065c0.035,5.429,2.43,8.586,6.001,7.513
														c3.33-1.002,6.11-5.226,6.071-11.28c-0.012-1.796-0.27-3.382-0.754-4.648
														C124.276,478.223,122.491,476.967,120.01,477.713"/>
													<path d="M138.04,472.584l-1.602,0.481l0.049,7.654c0.011,1.627,0.033,3.05,0.082,4.422
														c0.036,1.001,0.086,1.976,0.157,2.979l-0.038,0.046c-0.439-1.163-0.959-2.328-1.56-3.558
														c-0.267-0.547-0.55-1.105-0.849-1.684L130.008,475l-1.907,0.573l0.041,6.316l0.077,11.91l1.627-0.489l-0.05-7.784
														c-0.007-1.091-0.018-2.07-0.035-2.984c-0.029-1.625-0.076-3.042-0.147-4.493l0.057-0.044
														c0.68,1.771,1.577,3.586,2.511,5.339l0.099,0.187l4.154,7.8l1.722-0.519l-0.033-5.104L138.04,472.584"/>
													<polyline points="149.293,469.199 139.507,472.143 139.52,474.146 143.542,472.938 143.637,487.629 143.647,489.16 
														145.369,488.642 145.366,488.208 145.264,472.419 149.306,471.203 149.293,469.199 													"/>
													<path d="M151.846,479.109l1.262-5.663c0.247-1.188,0.456-2.36,0.627-3.489l0.057-0.018
														c0.204,0.989,0.408,2.016,0.708,3.112l1.33,4.858L151.846,479.109 M154.84,467.53l-2.04,0.612l-4.394,19.585
														l1.785-0.536l1.316-6.138l4.684-1.407l1.448,5.305l1.823-0.549L154.84,467.53"/>
													<path d="M173.515,461.913l-2.173,0.653l-2.294,9.523c-0.595,2.48-1.051,4.763-1.37,6.694l-0.063,0.02
														c-0.343-1.793-0.789-3.82-1.35-5.851l-2.313-8.164l-2.173,0.653l-0.81,18.506l1.633-0.491l0.299-7.915
														c0.122-2.804,0.16-5.849,0.202-8.111l0.058-0.018c0.37,2.027,0.893,4.229,1.558,6.608l2.153,8.039l1.354-0.406
														l2.237-9.421c0.633-2.631,1.201-5.259,1.639-7.51l0.063-0.02c-0.011,2.253,0.129,5.296,0.267,7.78l0.344,7.912
														l1.684-0.508L173.515,461.913"/>
													<polyline points="178.668,460.363 176.946,460.881 177.064,479.108 178.786,478.59 178.668,460.363 													"/>
													<path d="M191.567,456.483l-1.607,0.482l0.049,7.655c0.018,2.813,0.071,5.021,0.245,7.397l-0.038,0.047
														c-0.641-1.678-1.435-3.36-2.415-5.238l-4.272-7.928l-1.899,0.571l0.118,18.228l1.626-0.489l-0.05-7.784
														c-0.02-3.026-0.072-5.21-0.188-7.477l0.063-0.045c0.68,1.77,1.57,3.587,2.505,5.34l4.26,7.983l1.722-0.519
														L191.567,456.483"/>
													<path d="M197.101,465.497l1.262-5.663c0.247-1.186,0.456-2.36,0.627-3.489l0.057-0.018
														c0.204,0.99,0.408,2.016,0.708,3.114l1.331,4.856L197.101,465.497 M200.095,453.918l-2.04,0.613l-4.394,19.585
														l1.786-0.537l1.316-6.137l4.683-1.408l1.448,5.305l1.824-0.549L200.095,453.918"/>
													<polyline points="213.306,449.944 203.52,452.888 203.533,454.892 207.555,453.682 207.66,469.905 209.382,469.388 
														209.277,453.164 213.318,451.948 213.306,449.944 													"/>
													<polyline points="216.477,448.991 214.754,449.509 214.872,467.736 216.594,467.218 216.477,448.991 													"/>
													<path d="M224.819,463.124c-2.688,0.809-4.235-2.063-4.261-6.199c-0.027-4.112,1.438-7.966,4.184-8.792
														c2.897-0.871,4.237,2.519,4.261,6.252C229.028,458.358,227.602,462.287,224.819,463.124 M224.843,446.181
														c-3.641,1.096-6.145,5.778-6.108,11.378c0.035,5.43,2.43,8.588,5.995,7.516c3.336-1.004,6.116-5.229,6.077-11.283
														C230.772,448.517,228.611,445.047,224.843,446.181"/>
													<path d="M242.878,441.05l-1.608,0.483l0.049,7.654c0.018,2.813,0.071,5.021,0.246,7.398l-0.038,0.046
														c-0.642-1.677-1.436-3.359-2.409-5.24l-4.279-7.926l-1.9,0.572l0.118,18.227l1.627-0.488l-0.05-7.784
														c-0.02-3.028-0.072-5.21-0.188-7.478l0.063-0.045c0.68,1.771,1.577,3.585,2.505,5.34l4.26,7.984l1.722-0.519
														L242.878,441.05"/>
													<path d="M145.803,504.491l2.714-5.515l0.032-0.01l0.615,4.514L145.803,504.491 M149.752,497.02l-1.652,0.497
														l-6.298,12.557l1.506-0.453l1.779-3.637l4.333-1.305l0.42,2.977l1.595-0.479L149.752,497.02"/>
													<path d="M159.664,493.754c-3.146,0.946-5.514,3.934-6.204,7.417c-0.857,4.36,1.225,5.313,3.677,4.574
														c0.813-0.245,4.161-1.435,5.603-5.893l-1.417,0.427c-1.013,2.787-2.745,3.757-3.692,4.041
														c-2.681,0.807-3.183-0.981-2.653-3.649c0.586-2.978,2.464-4.973,4.421-5.562c1.036-0.313,2.544-0.42,2.563,1.443
														l1.411-0.424C163.538,494.295,162.446,492.917,159.664,493.754"/>
													<path d="M170.847,490.391c-2.049,0.616-3.768,2.1-4.906,4.021c-0.609,1.026-1.053,2.181-1.291,3.395
														c-0.863,4.362,1.218,5.314,3.671,4.576c0.809-0.243,4.125-1.421,5.579-5.82c0.008-0.022,0.016-0.048,0.023-0.07
														l-0.137,0.041l-1.273,0.383c-1.02,2.789-2.752,3.759-3.698,4.044c-2.682,0.807-3.177-0.984-2.653-3.65
														c0.19-0.967,0.518-1.831,0.939-2.576c0.876-1.549,2.161-2.588,3.482-2.984c1.036-0.313,2.55-0.422,2.562,1.445
														l1.417-0.428C174.721,490.932,173.636,489.551,170.847,490.391"/>
													<polyline points="185.438,486.285 177.565,488.653 175.909,497.09 175.34,499.984 180.769,498.352 183.314,497.586 
														183.58,496.23 178.488,497.762 177.066,498.189 177.216,497.431 177.813,494.397 183.722,492.62 183.993,491.263 
														178.078,493.042 178.762,489.569 185.173,487.641 185.438,486.285 													"/>
													<path d="M191.231,484.259c-2.618,0.787-4.063,2.852-4.408,4.618c-0.388,1.979,1.102,2.022,1.776,1.982l2.106-0.135
														c1.693-0.087,2.14,0.134,1.912,1.313c-0.321,1.632-2.155,2.451-3.21,2.769c-1.385,0.416-2.857,0.289-2.456-1.762
														l-1.373,0.413c-0.204,1.061-0.21,1.95,0.538,2.545c0.391,0.313,1.049,0.71,3.051,0.108
														c1.849-0.558,4.374-2.016,4.904-4.699c0.351-1.804-0.525-2.368-1.861-2.293l-2.934,0.185
														c-0.604,0.026-1.191-0.09-1-1.053c0.339-1.723,1.945-2.455,2.86-2.73c1.22-0.366,2.494-0.232,2.226,1.503l1.372-0.412
														C194.918,485.382,195.006,483.123,191.231,484.259"/>
													<path d="M201.551,481.154c-2.618,0.788-4.057,2.85-4.408,4.619c-0.389,1.978,1.108,2.02,1.783,1.979l2.106-0.135
														c1.687-0.084,2.14,0.133,1.905,1.313c-0.32,1.631-2.148,2.448-3.203,2.767c-1.385,0.417-2.863,0.292-2.456-1.762
														l-1.373,0.413c-0.21,1.063-0.217,1.952,0.532,2.546c0.39,0.313,1.049,0.712,3.05,0.108
														c1.855-0.558,4.38-2.016,4.903-4.698c0.357-1.806-0.524-2.368-1.854-2.296l-2.94,0.188
														c-0.598,0.023-1.185-0.093-0.994-1.056c0.339-1.723,1.939-2.453,2.86-2.729c1.213-0.365,2.494-0.233,2.225,1.502
														l1.366-0.411C205.244,482.276,205.332,480.018,201.551,481.154"/>
													<polyline points="138.384,504.154 101.396,515.279 101.407,517.018 138.395,505.892 138.384,504.154 													"/>
													<polyline points="243.972,472.394 211.197,482.252 211.208,483.99 243.983,474.132 243.972,472.394 													"/>
													<path d="M110.188,542.947l-0.035-5.462l1.646-0.495c2.027-0.609,2.9-0.545,2.914,1.632
														c0.015,2.306-1.029,3.274-2.599,3.746L110.188,542.947 M113.884,533.57l-7.345,2.21l0.123,18.976l3.596-1.082
														l-0.051-7.947l2.415-0.727c0.058-0.017,0.116-0.034,0.175-0.052c1.336-0.402,2.768-1.121,3.846-2.296
														c1.354-1.467,1.78-3.423,1.77-5.04C118.394,534.955,117.321,532.536,113.884,533.57"/>
													<path d="M125.17,538.217l-0.034-5.238l2.668-0.803c1.36-0.384,2.265-0.303,2.278,1.822
														c0.012,1.893-0.91,2.938-2.092,3.37L125.17,538.217 M128.327,529.227l-6.806,2.048l0.123,18.976l3.597-1.082
														l-0.053-8.172l0.642-0.193c0.162-0.049,0.325-0.099,0.488-0.146c0.87-0.262,1.744-0.506,2.569-0.522
														c1.235-0.009,1.22,1.591,1.253,2.744c0.034,1.256-0.027,3.61,0.412,4.693l3.953-1.188l-0.002-0.354
														c-0.874-0.297-0.802-4.98-0.808-5.764c-0.012-1.824-0.662-2.974-2.793-2.607v-0.052
														c2.412-1.054,2.938-3.394,2.925-5.466C133.805,528.646,131.434,528.291,128.327,529.227"/>
													<path d="M143.862,541.153c-2.466,0.741-2.609-1.775-2.619-3.343l-0.034-5.264c-0.009-1.463-0.266-4.704,2.562-5.555
														c2.669-0.803,2.614,2.585,2.624,4.099l0.032,4.86C146.438,537.775,146.43,540.381,143.862,541.153 M143.752,524.139
														c-5.751,1.729-6.115,5.434-6.237,10.313l0.018,2.701c0.033,5.059,0.444,8.641,6.348,6.864
														c5.903-1.774,6.267-5.591,6.234-10.648l-0.017-2.701C149.907,525.881,149.503,522.408,143.752,524.139"/>
													<polyline points="166.065,517.875 162.468,518.957 162.517,526.476 157.484,527.989 157.436,520.471 153.846,521.551 
														153.968,540.526 157.559,539.446 157.502,530.767 162.535,529.253 162.591,537.933 166.188,536.851 166.065,517.875 
																											"/>
													<polyline points="173.658,515.591 170.062,516.673 170.185,535.648 173.781,534.566 173.658,515.591 													"/>
													<path d="M181.306,529.511l-0.037-5.736l1.385-0.417c2.237-0.674,2.655,0.063,2.668,2.109
														c0.006,0.964-0.119,2.243-1.088,2.965c-0.41,0.301-0.872,0.472-1.349,0.614c-0.268,0.081-0.541,0.152-0.811,0.233
														L181.306,529.511 M181.25,520.986l-0.032-4.877l1.671-0.503c1.64-0.441,1.956,0.171,1.965,1.589
														c0.006,0.912-0.041,1.582-0.374,2.165c-0.489,0.763-1.408,1.079-2.217,1.321c-0.118,0.035-0.234,0.069-0.346,0.104
														L181.25,520.986 M183.412,512.657l-5.801,1.745l0.123,18.976l6.335-1.905c2.567-0.771,3.952-2.206,4.706-4.837
														c0.199-0.817,0.244-1.625,0.239-2.408c-0.016-2.451-0.795-3.889-2.824-3.554v-0.053
														c1.946-1.301,2.298-3.026,2.287-4.669c-0.008-1.291-0.149-2.334-0.975-3.129
														C186.469,511.841,184.95,512.194,183.412,512.657"/>
													<polyline points="196.095,508.842 192.499,509.924 192.621,528.899 196.218,527.818 196.095,508.842 													"/>
													<polyline points="211.097,504.33 207.893,505.294 199.113,507.935 199.131,510.722 203.338,509.456 203.442,525.645 
														207.039,524.563 206.935,508.374 211.115,507.117 211.109,506.146 211.097,504.33 													"/>
													<polyline points="224.149,500.403 214.033,503.446 214.056,506.941 214.156,522.422 224.272,519.38 224.254,516.593 
														217.734,518.554 217.696,512.713 223.701,510.907 223.693,509.651 223.684,508.128 221.104,508.904 217.678,509.935 
														217.666,507.935 217.647,505.152 224.167,503.19 224.149,500.403 													"/>
													<path d="M231.324,512.216l-0.072-11.156l2.364-0.711c2.154-0.646,2.629,0.984,2.659,5.458
														c0.029,4.541-0.098,6.509-1.96,7.601c-0.389,0.228-0.853,0.416-1.406,0.583l-1.57,0.472L231.324,512.216
														 M235.136,497.099l-7.492,2.254l0.075,11.554l0.048,7.423l6.646-1.999c0.896-0.271,1.875-0.615,2.666-1.311
														c0.097-0.085,0.191-0.174,0.281-0.262c2.661-2.605,2.634-6.771,2.61-10.392c-0.02-3.14-0.269-5.167-1.097-6.236
														C237.756,496.699,236.012,496.835,235.136,497.099"/>
													<path d="M135.693,468.049c-4.219,1.261-7.694-2.469-7.732-8.301c-0.031-5.835,3.375-11.617,7.607-12.89
														c0.004-0.001,0.008-0.003,0.012-0.005c4.252-1.277,7.721,2.46,7.752,8.34
														C143.357,461.013,139.924,466.784,135.693,468.049 M136.711,445.334c-0.763,0.229-1.519,0.457-2.275,0.685
														c-1.013,0.805-2.091,1.466-3.021,2.451c-2.314,2.454-3.701,5.639-4.18,9.401c-0.024,0.188-0.086,0.38-0.136,0.576
														c0.006,1.049,0.013,2.09,0.02,3.14c0.131,0.581,0.23,1.181,0.387,1.745c1.122,4.118,3.338,6.193,6.687,6.15
														c0.134,0.003,0.261,0.051,0.396,0.079c0.756-0.228,1.512-0.454,2.275-0.685c0.754-0.554,1.546-1.025,2.262-1.689
														c2.74-2.548,4.405-5.979,4.938-10.268c0.018-0.151,0.087-0.311,0.13-0.47c-0.006-1.05-0.013-2.091-0.02-3.141
														c-0.131-0.582-0.23-1.188-0.387-1.745c-1.122-4.118-3.338-6.192-6.687-6.159
														C136.966,445.412,136.838,445.355,136.711,445.334"/>
													<path d="M137.063,460.371c-0.985,0.297-1.811,0.545-2.79,0.839c-0.594,1.627-1.276,3.487-1.983,5.415
														c1.14,0.5,2.265,0.579,3.393,0.24c1.134-0.341,2.271-1.106,3.432-2.293
														C138.373,463.063,137.669,461.619,137.063,460.371"/>
													<path d="M132.21,450.402c-2.043,1.941-3.72,6.607-3.277,9.026c1.359-0.409,2.726-0.819,3.908-1.176
														c0.469-1.288,0.882-2.429,1.37-3.765C133.617,453.279,132.914,451.837,132.21,450.402"/>
													<path d="M138.965,448.396c-0.675,1.85-1.357,3.709-1.927,5.26c0.51,1.026,0.93,1.884,1.413,2.875
														c1.227-0.368,2.612-0.785,3.991-1.2C142.504,452.115,140.897,448.901,138.965,448.396"/>
													<path d="M135.634,455.096c-0.908,0.272-1.689,1.566-1.688,2.834c-0.004,1.286,0.791,2.143,1.712,1.864
														c0.004-0.001,0.007-0.002,0.011-0.003c0.891-0.269,1.66-1.539,1.684-2.782c0.017-1.279-0.759-2.168-1.687-1.923
														C135.655,455.089,135.644,455.092,135.634,455.096"/>
													<path d="M210.933,445.417c-4.219,1.261-7.688-2.471-7.725-8.303c-0.038-5.833,3.369-11.615,7.601-12.889
														c0.004-0.001,0.008-0.002,0.011-0.004c4.252-1.277,7.728,2.457,7.752,8.339
														C218.604,438.379,215.171,444.15,210.933,445.417 M211.952,422.703c-0.756,0.227-1.519,0.456-2.275,0.684
														c-1.014,0.806-2.091,1.465-3.015,2.449c-2.321,2.456-3.701,5.639-4.18,9.401c-0.024,0.188-0.093,0.382-0.136,0.575
														c0.007,1.05,0.013,2.091,0.02,3.141c0.125,0.583,0.23,1.181,0.38,1.747c1.128,4.117,3.344,6.19,6.693,6.148
														c0.134,0.003,0.261,0.051,0.389,0.081c0.756-0.228,1.519-0.457,2.275-0.685c0.761-0.556,1.553-1.027,2.269-1.691
														c2.734-2.546,4.399-5.977,4.932-10.266c0.024-0.153,0.087-0.312,0.13-0.47c-0.007-1.051-0.013-2.092-0.02-3.141
														c-0.125-0.583-0.23-1.188-0.381-1.747c-1.122-4.119-3.344-6.189-6.687-6.16
														C212.213,422.778,212.085,422.723,211.952,422.703"/>
													<path d="M212.31,437.737c-0.991,0.299-1.811,0.545-2.79,0.84c-0.594,1.626-1.276,3.485-1.983,5.414
														c1.14,0.5,2.263,0.58,3.39,0.241c1.132-0.342,2.268-1.104,3.429-2.292C213.62,440.429,212.916,438.986,212.31,437.737"
														/>
													<path d="M207.458,427.769c-2.044,1.942-3.726,6.61-3.284,9.029c1.366-0.411,2.732-0.822,3.915-1.178
														c0.469-1.288,0.882-2.429,1.363-3.763C208.858,430.648,208.155,429.205,207.458,427.769"/>
													<path d="M214.212,425.763c-0.682,1.853-1.358,3.709-1.927,5.261c0.503,1.028,0.929,1.884,1.413,2.876
														c1.227-0.369,2.611-0.786,3.991-1.201C217.751,429.481,216.139,426.27,214.212,425.763"/>
													<path d="M210.88,432.462c-0.914,0.274-1.689,1.566-1.693,2.836c-0.004,1.286,0.791,2.143,1.718,1.862
														c0.004-0.001,0.007-0.002,0.011-0.003c0.891-0.27,1.654-1.536,1.677-2.78c0.023-1.282-0.753-2.169-1.681-1.925
														C210.902,432.455,210.891,432.459,210.88,432.462"/>
												</g>
											</g>
										</g>
									</g>
								</g>
							</g>
						</g>
					</g>
					<g>
						<g>
							<path d="M290.101,701.264c0,2.006,1.626,3.633,3.631,3.633s3.631-1.627,3.631-3.633v-67.354c0-2.006-1.626-3.632-3.631-3.632
								s-3.631,1.626-3.631,3.632V701.264z"/>
						</g>
					</g>
					<g>
						<g>
							<path d="M531.098,701.618c0,1.81,1.468,3.276,3.277,3.276s3.277-1.468,3.277-3.276v-68.064c0-1.81-1.468-3.276-3.277-3.276
								s-3.277,1.468-3.277,3.276V701.618z"/>
						</g>
					</g>
					<g>
						<g enable-background="new    ">
							<g>
								<polygon fill="#66583E" points="563.521,622.573 562.359,637.915 263.466,637.915 262.303,622.573 								"/>
							</g>
						</g>
					</g>
				</g>
				<g>
					<defs>
						<rect id="SVGID_66_" width="1280" height="720"/>
					</defs>
					<clipPath id="SVGID_67_">
						<use xlink:href="#SVGID_66_"  overflow="visible"/>
					</clipPath>
					<path clip-path="url(#SVGID_67_)" fill="#527E85" d="M1157.996,702.926c-4.234-6.836-8.148-13.64-12.321-20.267l-39.23,4.264
						c3.243,5.257,6.748,10.412,10.355,15.521C1130.452,704.034,1144.23,703.868,1157.996,702.926z"/>
				</g>
				<g>
					<defs>
						<rect id="SVGID_68_" width="1280" height="720"/>
					</defs>
					<clipPath id="SVGID_69_">
						<use xlink:href="#SVGID_68_"  overflow="visible"/>
					</clipPath>
					<path clip-path="url(#SVGID_69_)" fill="#527E85" d="M123.391,708.908c12.436,0.271,24.872-0.266,37.308,0.842
						c0.244-1.907,0.491-3.807,0.789-5.691l-28.927-2.182c-0.012,0.028-0.023,0.059-0.036,0.085
						C130.848,705.009,127.423,707.102,123.391,708.908z"/>
				</g>
				<g>
					<defs>
						<rect id="SVGID_70_" width="1280" height="720"/>
					</defs>
					<clipPath id="SVGID_71_">
						<use xlink:href="#SVGID_70_"  overflow="visible"/>
					</clipPath>
					<path clip-path="url(#SVGID_71_)" fill="#527E85" d="M1299.934,665.896l-7.621,0.827c0.222,0.389,0.43,0.785,0.617,1.194
						c3.232,4.696,11.313,9.391,19.396,11.739c-8.082-2.35-16.162-7.043-19.396-11.739c-0.188-0.409-0.396-0.807-0.617-1.194
						l-42.66,4.639c8.069,2.751,15.004,7.146,17.419,14.166c-2.415-7.021-9.35-11.415-17.419-14.166l-103.978,11.297
						c4.173,6.627,8.087,13.431,12.321,20.267c18.714-1.284,37.408-3.995,55.742-5.66c-18.334,1.665-37.028,4.376-55.742,5.66
						c4.908,7.925,10.248,15.896,16.953,23.688c6.465,7.044,12.93,16.435,27.475,17.606c-14.545-1.173-21.01-10.563-27.475-17.606
						c-6.705-7.792-12.045-15.763-16.953-23.688c-13.766,0.942-27.544,1.108-41.196-0.481
						c11.157,15.788,23.357,31.125,32.292,47.646c-8.935-16.521-21.135-31.857-32.292-47.646
						c-7.052-0.821-14.074-2.105-21.042-4.004c6.968,1.897,13.99,3.183,21.042,4.004c-3.608-5.108-7.112-10.265-10.355-15.521
						l-127.587,13.863l-476.23,8.274H227.879l-66.391-5.003c-0.298,1.886-0.545,3.784-0.789,5.691
						c1.383,0.122,2.766,0.262,4.149,0.429c-1.383-0.167-2.767-0.307-4.149-0.429c-0.22,1.705-0.438,3.414-0.699,5.123
						c0.262-1.709,0.479-3.418,0.699-5.123c-12.436-1.106-24.872-0.569-37.308-0.842c-3.735,1.674-7.989,3.098-11.875,4.791
						c3.886-1.693,8.141-3.117,11.875-4.791c-5.574-0.121-11.15-0.403-16.724-1.079c5.574,0.676,11.15,0.958,16.724,1.079
						c4.032-1.808,7.457-3.899,9.134-6.946c0.012-0.025,0.023-0.057,0.036-0.085l-75.996-5.729l-294.949-20.014l37.979,261.825
						H1452.93l74.345-176.076L1299.934,665.896z"/>
				</g>
				<g>
					<defs>
						<rect id="SVGID_72_" width="1280" height="720"/>
					</defs>
					<clipPath id="SVGID_73_">
						<use xlink:href="#SVGID_72_"  overflow="visible"/>
					</clipPath>
					<g clip-path="url(#SVGID_73_)">
						<g>
							<g>
								<g enable-background="new    ">
									<defs>
										<polygon id="SVGID_74_" enable-background="new    " points="322.413,617.998 283.054,606.789 331.662,603.905 
											371.021,615.114 										"/>
									</defs>
									<clipPath id="SVGID_75_">
										<use xlink:href="#SVGID_74_"  overflow="visible"/>
									</clipPath>
									<g clip-path="url(#SVGID_75_)">
										<g>
											<g>
												<g>
													<path fill="#FFFFFF" d="M322.282,615.748l-0.666-0.189l35.737-2.121l0.666,0.189L322.282,615.748 M320.731,615.307
														l-0.66-0.188l35.745-2.121l0.66,0.188L320.731,615.307 M319.186,614.866l-0.66-0.188l35.745-2.12l0.66,0.188
														L319.186,614.866 M317.64,614.426l-0.665-0.188l35.745-2.121l0.665,0.188L317.64,614.426 M316.089,613.984l-0.66-0.188
														l35.745-2.12l0.66,0.188L316.089,613.984 M314.544,613.544l-0.666-0.188l35.745-2.121l0.666,0.188L314.544,613.544
														 M312.999,613.104l-0.666-0.188l35.745-2.121l0.665,0.189L312.999,613.104 M311.453,612.664l-0.665-0.189l35.745-2.121
														l0.665,0.189L311.453,612.664 M310.01,612.253l-0.66-0.188l35.737-2.121l0.66,0.188L310.01,612.253 M308.464,611.813
														l-0.66-0.188l35.745-2.121l0.66,0.188L308.464,611.813 M306.919,611.373l-0.666-0.19l35.745-2.12l0.666,0.189
														L306.919,611.373 M305.374,610.933l-0.666-0.188l35.745-2.121l0.665,0.189L305.374,610.933 M303.823,610.491
														l-0.659-0.188l35.745-2.121l0.66,0.188L303.823,610.491 M302.278,610.051l-0.666-0.188l35.745-2.121l0.666,0.188
														L302.278,610.051 M300.732,609.61l-0.666-0.189l35.745-2.121l0.666,0.189L300.732,609.61 M299.181,609.169l-0.66-0.188
														l35.745-2.121l0.66,0.188L299.181,609.169 M296.971,608.539l-0.66-0.188l35.745-2.12l0.66,0.188L296.971,608.539
														 M287.051,607.928l34.368,9.788c0.547,0.155,1.814,0.233,2.83,0.174l44.928-2.666c1.016-0.061,1.398-0.235,0.851-0.393
														l-33.558-9.557l-48.608,2.884L287.051,607.928"/>
													<polyline points="334.267,606.86 298.521,608.981 299.181,609.169 334.926,607.048 334.267,606.86 													"/>
													<polyline fill="#ED1C24" points="332.056,606.23 296.311,608.352 296.971,608.539 332.715,606.418 332.056,606.23 
																											"/>
													<polyline points="335.812,607.3 300.067,609.421 300.732,609.61 336.477,607.489 335.812,607.3 													"/>
													<polyline points="337.357,607.74 301.612,609.861 302.278,610.051 338.022,607.93 337.357,607.74 													"/>
													<polyline points="338.908,608.182 303.164,610.303 303.823,610.491 339.568,608.37 338.908,608.182 													"/>
													<polyline points="340.454,608.622 304.708,610.743 305.374,610.933 341.119,608.813 340.454,608.622 													"/>
													<polyline points="341.999,609.063 306.254,611.183 306.919,611.373 342.664,609.252 341.999,609.063 													"/>
													<polyline points="343.549,609.504 307.804,611.625 308.464,611.813 344.209,609.691 343.549,609.504 													"/>
													<polyline points="345.087,609.944 309.35,612.065 310.01,612.253 345.747,610.132 345.087,609.944 													"/>
													<polyline points="346.533,610.354 310.789,612.475 311.453,612.664 347.198,610.543 346.533,610.354 													"/>
													<polyline fill="#2D2D2D" points="316.177,604.823 298.539,605.87 299.531,606.153 317.169,605.106 316.177,604.823 
																											"/>
													<polyline points="348.079,610.794 312.333,612.915 312.999,613.104 348.744,610.983 348.079,610.794 													"/>
													<polyline points="349.624,611.233 313.879,613.354 314.544,613.544 350.289,611.423 349.624,611.233 													"/>
													<polyline points="351.174,611.676 315.429,613.796 316.089,613.984 351.834,611.863 351.174,611.676 													"/>
													<polyline points="352.72,612.115 316.975,614.236 317.64,614.426 353.385,612.305 352.72,612.115 													"/>
													<polyline points="354.271,612.558 318.526,614.678 319.186,614.866 354.931,612.745 354.271,612.558 													"/>
													<polyline points="355.816,612.997 320.071,615.118 320.731,615.307 356.476,613.186 355.816,612.997 													"/>
													<polyline points="357.354,613.438 321.616,615.559 322.282,615.748 358.019,613.627 357.354,613.438 													"/>
													<polyline fill="#755D4D" points="332.655,604.188 317.169,605.106 299.531,606.153 284.046,607.072 287.051,607.928 
														287.862,608.158 336.47,605.274 332.655,604.188 													"/>
												</g>
											</g>
										</g>
									</g>
								</g>
							</g>
						</g>
						<g id="Layer_1_1_">
							<defs>
								<rect id="SVGID_76_" width="1280" height="720"/>
							</defs>
							<clipPath id="SVGID_77_">
								<use xlink:href="#SVGID_76_"  overflow="visible"/>
							</clipPath>
							<g clip-path="url(#SVGID_77_)">
								<g>
									<g>
										<g enable-background="new    ">
											<defs>
												<polygon id="SVGID_78_" enable-background="new    " points="342.211,609.565 302.852,598.356 351.46,595.473 
													390.819,606.682 												"/>
											</defs>
											<clipPath id="SVGID_79_">
												<use xlink:href="#SVGID_78_"  overflow="visible"/>
											</clipPath>
											<g clip-path="url(#SVGID_79_)">
												<g>
													<g>
														<g>
															<path fill="#FFFFFF" d="M342.08,607.315l-0.666-0.189l35.745-2.121l0.666,0.189L342.08,607.315 M340.529,606.874
																l-0.66-0.188l35.745-2.12l0.66,0.188L340.529,606.874 M338.984,606.434l-0.665-0.188l35.745-2.121l0.665,0.189
																L338.984,606.434 M337.438,605.993l-0.665-0.189l35.745-2.121l0.665,0.189L337.438,605.993 M335.888,605.552
																l-0.66-0.188l35.745-2.12l0.66,0.188L335.888,605.552 M334.343,605.111l-0.666-0.189l35.745-2.121l0.666,0.189
																L334.343,605.111 M332.797,604.671l-0.665-0.188l35.745-2.121l0.665,0.188L332.797,604.671 M331.246,604.229
																l-0.659-0.188l35.745-2.121l0.66,0.188L331.246,604.229 M329.808,603.82l-0.66-0.188l35.745-2.121l0.659,0.188
																L329.808,603.82 M328.263,603.38l-0.66-0.188l35.745-2.121l0.66,0.188L328.263,603.38 M326.718,602.94l-0.666-0.19
																l35.745-2.12l0.666,0.189L326.718,602.94 M325.167,602.498l-0.66-0.188l35.745-2.12l0.659,0.188L325.167,602.498
																 M323.621,602.059l-0.659-0.188l35.745-2.121l0.66,0.188L323.621,602.059 M322.076,601.618l-0.666-0.189
																l35.745-2.121l0.666,0.189L322.076,601.618 M320.525,601.177l-0.66-0.188l35.745-2.121l0.66,0.188L320.525,601.177
																 M318.979,600.736l-0.665-0.189l35.745-2.121l0.666,0.189L318.979,600.736 M316.769,600.106l-0.665-0.189
																l35.745-2.12l0.665,0.188L316.769,600.106 M306.85,599.495l34.363,9.786c0.553,0.156,1.819,0.234,2.834,0.176
																l44.935-2.666c1.016-0.061,1.391-0.236,0.839-0.394l-33.553-9.557l-48.608,2.884L306.85,599.495"/>
															<polyline points="354.059,598.426 318.314,600.547 318.979,600.736 354.725,598.615 354.059,598.426 															
																"/>
															<polyline fill="#ED1C24" points="351.849,597.797 316.104,599.917 316.769,600.106 352.514,597.985 351.849,597.797 
																															"/>
															<polyline points="355.61,598.867 319.865,600.988 320.525,601.177 356.271,599.056 355.61,598.867 															
																"/>
															<polyline points="357.155,599.308 321.411,601.429 322.076,601.618 357.821,599.497 357.155,599.308 															
																"/>
															<polyline points="358.707,599.749 322.962,601.87 323.621,602.059 359.366,599.938 358.707,599.749 															
																"/>
															<polyline points="360.252,600.189 324.507,602.311 325.167,602.498 360.911,600.377 360.252,600.189 															
																"/>
															<polyline points="361.797,600.63 326.052,602.75 326.718,602.94 362.462,600.819 361.797,600.63 															"/>
															<polyline points="363.348,601.071 327.603,603.192 328.263,603.38 364.008,601.259 363.348,601.071 															
																"/>
															<polyline points="364.894,601.512 329.148,603.633 329.808,603.82 365.553,601.699 364.894,601.512 															
																"/>
															<polyline points="366.332,601.921 330.587,604.042 331.246,604.229 366.991,602.108 366.332,601.921 															
																"/>
															<polyline fill="#2D2D2D" points="335.975,596.391 318.337,597.438 319.33,597.721 336.968,596.674 335.975,596.391 
																															"/>
															<polyline points="367.877,602.361 332.132,604.482 332.797,604.671 368.542,602.551 367.877,602.361 															
																"/>
															<polyline points="369.422,602.801 333.677,604.922 334.343,605.111 370.087,602.99 369.422,602.801 															
																"/>
															<polyline points="370.973,603.243 335.228,605.363 335.888,605.552 371.633,603.431 370.973,603.243 															
																"/>
															<polyline points="372.519,603.683 336.773,605.804 337.438,605.993 373.183,603.872 372.519,603.683 															
																"/>
															<polyline points="374.063,604.123 338.319,606.244 338.984,606.434 374.729,604.313 374.063,604.123 															
																"/>
															<polyline points="375.614,604.564 339.869,606.686 340.529,606.874 376.274,604.753 375.614,604.564 															
																"/>
															<polyline points="377.159,605.005 341.415,607.126 342.08,607.315 377.825,605.194 377.159,605.005 															
																"/>
															<polyline fill="#755D4D" points="352.453,595.755 336.968,596.674 319.33,597.721 303.845,598.64 306.85,599.495 
																307.66,599.726 356.269,596.842 352.453,595.755 															"/>
														</g>
													</g>
												</g>
											</g>
										</g>
									</g>
								</g>
								<g>
									<defs>
										<rect id="SVGID_80_" width="1280" height="720"/>
									</defs>
									<clipPath id="SVGID_81_">
										<use xlink:href="#SVGID_80_"  overflow="visible"/>
									</clipPath>
									<path opacity="0.5" clip-path="url(#SVGID_81_)" fill="#FFFFFF" enable-background="new    " d="M771.869,174.296
										c-38.788-12.914-117.074-19.529-160-20.935c-71.46-2.339-100.401,12.13-237.576,12.13
										c-219.575,0-397.576,3.942-397.576,8.805c0,4.862,178.001,8.803,397.576,8.803c134.503,0,254.521,11.654,326.465,9.39
										C746.263,191.059,795.193,182.059,771.869,174.296z"/>
								</g>
								<g>
									<defs>
										<rect id="SVGID_82_" width="1280" height="720"/>
									</defs>
									<clipPath id="SVGID_83_">
										<use xlink:href="#SVGID_82_"  overflow="visible"/>
									</clipPath>
									<path opacity="0.5" clip-path="url(#SVGID_83_)" fill="#FFFFFF" enable-background="new    " d="M1403.367,84.713
										c0-5.537-79.232-10.41-199.284-13.243c-69.738-1.646-153.249-2.604-243.006-2.604c-13.253,0-26.368,0.021-39.321,0.062
										c-110.986,0.35-194.998-10.237-267.211-7.496c-74.737,2.838-138.54-3.628-135.757,23.281
										c1.729,16.726,95.7,21.923,127.139,15.847c38.167-7.376,110.16,11.048,172.931,12.521
										c69.528,1.632,52.904-12.521,142.221-12.521C1205.348,100.56,1403.367,93.465,1403.367,84.713z"/>
								</g>
								<g>
									<defs>
										<rect id="SVGID_84_" width="1280" height="720"/>
									</defs>
									<clipPath id="SVGID_85_">
										<use xlink:href="#SVGID_84_"  overflow="visible"/>
									</clipPath>
									<path opacity="0.2" clip-path="url(#SVGID_85_)" fill="#FFFFFF" enable-background="new    " d="M1826.799,142.013
										c0-8.752-198.02-15.847-442.29-15.847c-88.786,0-148.904-11.786-218.182-10.173c-77.071,1.794-111.044,4.716-144.914,7.825
										c-19.447,1.786-80.088-5.534-79.194,18.194c1.079,28.564,51.284,31.166,79.732,33.259
										c51.754,3.808,144.549,10.387,258.045,11.739c43.869,0.522,129.824,11.738,178.586,11.738
										C1702.854,198.75,1826.799,150.767,1826.799,142.013z"/>
								</g>
								<g>
									<defs>
										<rect id="SVGID_86_" width="1280" height="720"/>
									</defs>
									<clipPath id="SVGID_87_">
										<use xlink:href="#SVGID_86_"  overflow="visible"/>
									</clipPath>
									<path opacity="0.5" clip-path="url(#SVGID_87_)" fill="#FFFFFF" enable-background="new    " d="M1495.445,247.291
										c0-6.897-122.981-12.766-294.662-14.943c-46.169-0.585-101.742-12.251-153.51-12.251
										c-54.579,0-100.968,11.701-149.235,12.349c-84.046,1.128-132.047-9.23-182.887-6.643c-19.495,0.993-55.893-1.142-68.688,0
										c-20.442,1.824-52.524,2.511-35.6,21.489c33.655,37.734,158.221-5.441,199.641-3.028
										c51.595,3.004,40.437,4.53,134.142,5.767c47.645,0.628,87.652,8.804,141.393,8.804c41.449,0,48.681,4.101,86.727,3.718
										C1358.925,260.683,1495.445,254.558,1495.445,247.291z"/>
								</g>
								<g>
									<defs>
										<rect id="SVGID_88_" width="1280" height="720"/>
									</defs>
									<clipPath id="SVGID_89_">
										<use xlink:href="#SVGID_88_"  overflow="visible"/>
									</clipPath>
									<path opacity="0.2" clip-path="url(#SVGID_89_)" fill="#FFFFFF" enable-background="new    " d="M536.97,60.16
										c-4.715-15.412-152.015-18.768-211.488-21.467c-50.632-2.297-172.634,0.784-250.917-0.23
										C-18.04,37.264-59.306,37.82-69.813,37.82c-244.272,0-372.478,19.315-372.478,28.067c0,8.753,198.018,15.847,442.29,15.847
										c15.477,0,30.769-0.028,45.837-0.084c53.262-0.196,123.817,11.853,169.77,11.041
										c105.818-1.871,152.869-8.408,190.049-12.477C419.848,78.66,541.349,74.475,536.97,60.16z"/>
								</g>
								<g>
									<defs>
										<rect id="SVGID_90_" width="1280" height="720"/>
									</defs>
									<clipPath id="SVGID_91_">
										<use xlink:href="#SVGID_90_"  overflow="visible"/>
									</clipPath>
									<path opacity="0.1" clip-path="url(#SVGID_91_)" fill="#FFFFFF" enable-background="new    " d="M599.629,215.793
										c52.763-5.674-74.432-25.142-117.474-27.585c-52.535-2.984-104.438,0.684-198.697-0.517
										c-46.273-0.588-179.296-0.685-231.202-0.685c-244.272,0-306.229,14.197-306.229,22.948
										c0,8.753,198.018,15.848,442.29,15.848C432.587,225.802,587.708,217.075,599.629,215.793z"/>
								</g>
								<g>
									<defs>
										<rect id="SVGID_92_" width="1280" height="720"/>
									</defs>
									<clipPath id="SVGID_93_">
										<use xlink:href="#SVGID_92_"  overflow="visible"/>
									</clipPath>
									<path opacity="0.2" clip-path="url(#SVGID_93_)" fill="#FFFFFF" enable-background="new    " d="M460.606,129.123
										c4.413-20.35-248.322-12.292-270.705-14.21c-67.142-5.756-215.817-0.664-399.02-0.664
										c-244.272,0-442.29,7.18-442.29,16.038c0,8.859,198.018,16.04,442.29,16.04c174.668,0,288.358,10.614,360.239,5.282
										C179.766,149.483,454.969,155.112,460.606,129.123z"/>
								</g>
							</g>
						</g>
					</g>
				</g>
			</g>
		</g>
	</g>
</g>
</svg>
