<?xml version="1.0" encoding="utf-8"?>
<!-- Generator: Adobe Illustrator 16.0.0, SVG Export Plug-In . SVG Version: 6.00 Build 0)  -->
<!DOCTYPE svg PUBLIC "-//W3C//DTD SVG 1.1//EN" "http://www.w3.org/Graphics/SVG/1.1/DTD/svg11.dtd">
<svg version="1.1" id="Layer_1" xmlns="http://www.w3.org/2000/svg" xmlns:xlink="http://www.w3.org/1999/xlink" x="0px" y="0px"
	 width="303px" height="167px" viewBox="0 0 303 167" enable-background="new 0 0 303 167" xml:space="preserve">
<g>
	<path fill="#FFFFFF" d="M184.175,90.083c10.521,16.012,56.916,18.9,75.477,14.023c15.263-4.01,16.907-54.351-23.523-58.749
		C195.698,40.958,172.184,71.834,184.175,90.083z"/>
	<path fill="#FFFFFF" d="M221.459,85.621c-0.501,19.138,35.976,47.88,54.015,54.419c14.834,5.379,44.941-35.055,14.23-61.647
		C258.991,51.801,222.029,63.81,221.459,85.621z"/>
	<path fill="#FFFFFF" d="M144.431,120.571c13.193,13.906,59.369,8.568,76.773,0.496c14.312-6.637,7.009-56.475-33.563-53.676
		C147.066,70.189,129.394,104.726,144.431,120.571z"/>
	<path fill="#FFFFFF" d="M115.157,89.632c13.193,13.904,59.37,8.568,76.774,0.494c14.311-6.637,7.008-56.475-33.564-53.675
		C117.794,39.249,100.121,73.784,115.157,89.632z"/>
	<path fill="#FFFFFF" d="M135.859,59.479c9.269,9.77,41.71,6.02,53.937,0.348c10.055-4.662,4.925-39.676-23.58-37.71
		S125.295,48.345,135.859,59.479z"/>
	<path fill="#FFFFFF" d="M154.583,23.416c4.006,4.223,18.03,2.602,23.314,0.15c4.348-2.016,2.129-17.15-10.192-16.301
		C155.384,8.116,150.017,18.604,154.583,23.416z"/>
	<path fill="#FFFFFF" d="M164.939,16.185c4.006,4.224,18.03,2.602,23.314,0.15c4.347-2.015,2.128-17.15-10.193-16.301
		C165.74,0.885,160.373,11.372,164.939,16.185z"/>
	<path fill="#FFFFFF" d="M164.939,23.415c4.006,4.223,18.711,8.036,23.996,5.584c4.347-2.016,1.446-22.584-10.875-21.733
		C165.74,8.115,160.373,18.603,164.939,23.415z"/>
	<path fill="#FFFFFF" d="M147.673,23.824c3.124,4.009,13.537,2.967,17.402,0.884c3.179-1.713,1.037-15.691-8.13-15.304
		S144.11,19.256,147.673,23.824z"/>
	<path fill="#FFFFFF" d="M186.229,145.011c13.192,13.906,59.369,8.568,76.773,0.496c14.311-6.637,7.008-56.475-33.564-53.676
		C188.864,94.63,171.191,129.165,186.229,145.011z"/>
	<path fill="#FFFFFF" d="M45.055,103.485c10.521,16.012,56.915,18.9,75.477,14.023c15.262-4.01,16.906-54.35-23.523-58.749
		S33.063,85.236,45.055,103.485z"/>
	<path fill="#FFFFFF" d="M104.311,132.12c8.391,17.217,54.04,25.975,73.072,23.494c15.649-2.039,23.708-51.76-15.832-61.258
		C122.012,84.857,94.747,112.497,104.311,132.12z"/>
	<path fill="#FFFFFF" d="M5.311,133.974c13.192,13.906,59.369,8.568,76.773,0.496c14.311-6.637,7.008-56.475-33.565-53.677
		C7.945,83.592-9.727,118.128,5.311,133.974z"/>
	<path fill="#FFFFFF" d="M47.107,158.413c13.193,13.904,59.37,8.57,76.773,0.496c14.312-6.637,7.009-56.475-33.564-53.676
		C49.742,108.032,32.07,142.567,47.107,158.413z"/>
</g>
</svg>
