<?xml version="1.0" encoding="utf-8"?>
<!-- Generator: Adobe Illustrator 16.0.0, SVG Export Plug-In . SVG Version: 6.00 Build 0)  -->
<!DOCTYPE svg PUBLIC "-//W3C//DTD SVG 1.1//EN" "http://www.w3.org/Graphics/SVG/1.1/DTD/svg11.dtd">
<svg version="1.1" id="Layer_1" xmlns="http://www.w3.org/2000/svg" xmlns:xlink="http://www.w3.org/1999/xlink" x="0px" y="0px"
	 width="31px" height="138px" viewBox="0 0 31 138" enable-background="new 0 0 31 138" xml:space="preserve">
<g>
	<path fill="#514D47" d="M30.341,100.967V45.602H0.6v57.632C9.71,100.029,20.389,99.549,30.341,100.967z"/>
	<path d="M0.6,103.234v35.302h29.741v-37.569C20.389,99.549,9.71,100.029,0.6,103.234z"/>
	<rect x="0.6" y="28.661" fill="#0F0F0F" width="29.741" height="16.941"/>
	<path d="M30.138,11.215C28.215,6.827,21.03,0.536,15.47,0.536c-5.27,0-11.998,5.649-14.322,9.975
		C10.822,12.607,21.071,12.988,30.138,11.215z"/>
	<path fill="#FFFFFF" d="M30.138,11.215c-9.066,1.773-19.315,1.392-28.99-0.704c-0.225,0.417-0.411,0.823-0.548,1.209
		c-1.416,3.99,0,16.94,0,16.94h29.741c0,0,1.416-12.951,0-16.94C30.282,11.556,30.213,11.387,30.138,11.215z"/>
</g>
</svg>
