<?xml version="1.0" encoding="utf-8"?>
<!-- Generator: Adobe Illustrator 16.0.0, SVG Export Plug-In . SVG Version: 6.00 Build 0)  -->
<!DOCTYPE svg PUBLIC "-//W3C//DTD SVG 1.1//EN" "http://www.w3.org/Graphics/SVG/1.1/DTD/svg11.dtd">
<svg version="1.1" id="Layer_1" xmlns="http://www.w3.org/2000/svg" xmlns:xlink="http://www.w3.org/1999/xlink" x="0px" y="0px"
	 width="58px" height="206px" viewBox="0 0 58 206" enable-background="new 0 0 58 206" xml:space="preserve">
<g>
	<path fill="#FFFFFF" d="M9.355,199c-3.215-3.507-4.746-17.721-2.855-23.5c2.926-8.943,8.75-24.43,11.366-33.468
		c2.147-7.417,0.671-23.307,2.588-30.786c2.952-11.525,10.057-36.727,22.084-42.113c7.592,8.521,2.471,28.683,2.352,47.01
		c-0.057,8.532,2.732,18.312,2.437,23.749c-0.333,6.13-6.368,16.858-8.902,27.912c-2.274,9.919-4.236,20.077-4.236,20.077
		S29.976,199.771,27,202C20.803,206.643,14.587,204.708,9.355,199z"/>
	<path fill="#FFFFFF" d="M22.859,133.918c0,0-15.232-21.41-13.342-27.191c2.926-8.941,14.754-24.323,17.37-33.361
		c2.148-7.417,0.672-23.306,2.588-30.787C32.428,31.054,39.532,5.853,51.561,0.466c7.591,8.521,2.47,28.683,2.351,47.009
		c-0.056,8.532,2.732,18.312,2.438,23.75c-0.334,6.13-6.369,16.858-8.903,27.912c-2.273,9.917-4.236,20.077-4.236,20.077
		l0.031,18.585L22.859,133.918z"/>
</g>
</svg>
