<?xml version="1.0" encoding="utf-8"?>
<!-- Generator: Adobe Illustrator 16.0.0, SVG Export Plug-In . SVG Version: 6.00 Build 0)  -->
<svg version="1.2" baseProfile="tiny" id="Layer_1" xmlns="http://www.w3.org/2000/svg" xmlns:xlink="http://www.w3.org/1999/xlink"
	 x="0px" y="0px" width="400px" height="52.5px" viewBox="0 0 400 52.5" xml:space="preserve">
<g>
	<path fill="#FFFFFF" d="M58.098,40.992l3.18,4.806H55.28l-2.06-3.776c-1.012,0.108-1.801,0.163-2.367,0.163
		c-3.469,0-6.655-1.21-9.557-3.631c-2.903-2.421-4.354-7.13-4.354-14.128c0.145-5.841,1.394-10.171,3.749-12.99
		C43.046,8.617,46.65,7.172,51.504,7.1c3.661,0,6.558,0.663,8.69,1.987c2.132,1.325,3.643,3.252,4.535,5.781
		c0.891,2.529,1.367,5.763,1.427,9.702c0,3.505-0.368,6.375-1.102,8.608c-0.735,2.234-1.611,3.906-2.629,5.014
		c-1.018,1.108-1.969,1.843-2.854,2.204C58.686,40.757,58.194,40.956,58.098,40.992z M58.026,24.57c0-3.962-0.364-7.064-1.093-9.304
		c-0.729-2.24-2.508-3.36-5.338-3.36c-2.638,0.036-4.384,1.195-5.239,3.478C45.5,17.666,45.048,20.68,45,24.425
		c0,3.047,0.244,5.465,0.731,7.254c0.488,1.788,1.057,3.047,1.708,3.775c0.65,0.729,1.262,1.172,1.833,1.328
		c0.572,0.157,0.924,0.253,1.057,0.289l-1.481-2.439h5.474l0.885,1.481c0.024-0.024,0.196-0.171,0.515-0.443
		c0.319-0.271,0.647-0.776,0.984-1.518c0.337-0.74,0.642-1.924,0.912-3.55C57.891,28.978,58.026,26.967,58.026,24.57z"/>
	<path fill="#FFFFFF" d="M83.409,42.257c-3.987,0-6.992-0.611-9.015-1.833c-2.023-1.223-3.321-2.692-3.894-4.408
		c-0.572-1.717-0.858-3.659-0.858-5.827V7.244h7.985v22.872c0,0.061-0.012,0.259-0.036,0.596c-0.024,0.337-0.036,0.632-0.036,0.885
		c0,4.047,2.246,6.07,6.739,6.07c4.143,0,6.215-1.975,6.215-5.926c0-0.313-0.012-0.68-0.036-1.102
		c-0.024-0.421-0.036-0.668-0.036-0.741V7.244h6.576v22.655v1.626C97.013,38.68,92.479,42.257,83.409,42.257z"/>
	<path fill="#FFFFFF" d="M109.66,7.244v34.489h-7.841V7.244H109.66z"/>
	<path fill="#FFFFFF" d="M137.934,39.818c0,0.241-0.888,0.653-2.665,1.237c-1.776,0.584-3.947,0.906-6.513,0.967
		c-5.974,0-10.145-1.515-12.511-4.544c-2.367-3.029-3.55-7.753-3.55-14.173c0.12-3.457,0.653-6.365,1.599-8.726
		c0.945-2.36,2.496-4.197,4.652-5.51c2.156-1.313,5.059-1.993,8.708-2.042c2.18,0,4.14,0.166,5.88,0.497
		c1.741,0.332,2.984,0.612,3.731,0.84l1.481,5.835c-0.639-0.445-1.783-1-3.433-1.662c-1.65-0.662-3.638-0.994-5.962-0.994
		c-3.204,0-5.351,1.12-6.441,3.36c-1.09,2.24-1.635,5.041-1.635,8.401c0,2.59,0.147,4.872,0.442,6.847
		c0.295,1.976,0.946,3.667,1.951,5.077c1.006,1.409,2.478,2.174,4.417,2.294c2.276,0,4.173-0.214,5.691-0.641
		c1.518-0.428,2.686-0.913,3.505-1.455c0.747-0.481,1.12-0.747,1.12-0.795h-0.018L137.934,39.818z"/>
	<path fill="#FFFFFF" d="M167.689,7.244l-10.731,13.622l12.665,20.867h-8.365l-8.816-15.176l-3.107,3.92v11.255h-7.841V7.244h7.841
		V23.45l12.665-16.206H167.689z"/>
	<path fill="#FFFFFF" d="M214.318,18.644l-9.701,23.757l-10.063-23.757v23.089h-5.546V7.244h8.726l8.075,18.066l7.77-18.066h8.581
		v34.489h-7.841V18.644z"/>
	<path fill="#FFFFFF" d="M232.602,33.513l-2.818,8.22h-5.402l11.924-34.489h8.799l12.141,34.489h-7.842l-3.035-8.22H232.602z
		 M244.742,28.49l-5.258-14.724l-5.041,14.724H244.742z"/>
	<path fill="#FFFFFF" d="M274.553,7.244c4.432,0,7.575,1.512,9.43,4.535c1.855,3.023,2.783,7.239,2.783,12.646
		c0,3.891-0.413,7.109-1.238,9.656c-0.825,2.548-2.149,4.46-3.975,5.736c-1.824,1.277-4.206,1.915-7.145,1.915h-15.104V7.244
		H274.553z M280.388,24.425c-0.024-2.722-0.235-5.004-0.632-6.847c-0.398-1.843-1.193-3.309-2.385-4.399
		c-1.193-1.09-2.921-1.635-5.186-1.635h-5.041v25.889h5.637c2.976,0,4.986-1.084,6.035-3.252
		C279.863,32.013,280.388,28.761,280.388,24.425z"/>
	<path fill="#FFFFFF" d="M298.291,37.433h16.73v4.3h-24.57V7.244h7.84V37.433z"/>
	<path fill="#FFFFFF" d="M325.3,7.244v34.489h-7.84V7.244H325.3z"/>
	<path fill="#FFFFFF" d="M345.589,7.244c6.709,0,10.063,2.74,10.063,8.22c0,3.264-0.918,5.423-2.755,6.477
		c-1.837,1.054-3.363,1.581-4.579,1.581c5.721,0.554,8.581,3.318,8.581,8.292c-0.061,3.842-1.1,6.456-3.116,7.841
		c-2.018,1.385-4.677,2.078-7.977,2.078h-16.061V7.244H345.589z M349.798,15.826c-0.252-2.854-1.951-4.282-5.094-4.282h-7.119
		v10.063h6.884C348.021,21.607,349.798,19.68,349.798,15.826z M345.065,37.433c3.648,0,5.474-1.993,5.474-5.98
		c0-1.782-0.539-3.155-1.617-4.119c-1.078-0.963-2.436-1.445-4.073-1.445h-7.264v11.544H345.065z"/>
</g>
</svg>
